<svg width="160" height="48" viewBox="0 0 160 48" fill="none" xmlns="http://www.w3.org/2000/svg">
<g clip-path="url(#clip0_458_3184)">
<path d="M154.074 0H5.92593C2.65313 0 0 2.68629 0 6V42C0 45.3137 2.65313 48 5.92593 48H154.074C157.347 48 160 45.3137 160 42V6C160 2.68629 157.347 0 154.074 0Z" fill="white"/>
<path d="M56.2014 12.2879C56.2208 12.728 56.1521 13.1675 55.9993 13.5799C55.8466 13.9924 55.6129 14.3693 55.3125 14.6879C54.9758 15.0398 54.5695 15.3158 54.1202 15.4978C53.6708 15.6798 53.1886 15.7636 52.7051 15.7439C52.2187 15.7549 51.7354 15.6647 51.2848 15.4789C50.8343 15.2931 50.4262 15.0157 50.0858 14.6639C49.3952 13.9486 49.0085 12.9881 49.0085 11.9879C49.0085 10.9876 49.3952 10.0271 50.0858 9.31188C50.6138 8.78951 51.2825 8.43677 52.0079 8.29799C52.7333 8.15921 53.483 8.24059 54.1629 8.53189C54.5902 8.70976 54.9714 8.98487 55.2769 9.33589L54.6488 9.97188C54.4134 9.68481 54.1152 9.45725 53.7778 9.30727C53.4404 9.15729 53.0731 9.08902 52.7051 9.10788C52.2405 9.11114 51.7838 9.22955 51.3749 9.45278C50.9659 9.67601 50.6172 9.99725 50.3592 10.3884C50.1012 10.7796 49.9418 11.2288 49.8949 11.6968C49.8479 12.1648 49.9149 12.6373 50.09 13.073C50.265 13.5087 50.5428 13.8944 50.8991 14.1963C51.2553 14.4982 51.6792 14.7072 52.1336 14.8049C52.588 14.9027 53.0592 14.8863 53.5059 14.7571C53.9526 14.6279 54.3613 14.3899 54.6962 14.0639C55.0582 13.662 55.2681 13.1434 55.2888 12.5999H52.7051V11.7359H56.154C56.181 11.9187 56.1968 12.1031 56.2014 12.2879Z" fill="black" stroke="black" stroke-width="0.411304" stroke-miterlimit="10"/>
<path d="M61.6298 9.28815H58.4298V11.5681H61.3454V12.4321H58.4298V14.7121H61.6298V15.6001H57.5054V8.40015H61.6298V9.28815Z" fill="black" stroke="black" stroke-width="0.411304" stroke-miterlimit="10"/>
<path d="M65.517 15.6001H64.6044V9.28815H62.6133V8.40015H67.5555V9.28815H65.517V15.6001Z" fill="black" stroke="black" stroke-width="0.411304" stroke-miterlimit="10"/>
<path d="M71.0403 15.6001V8.40015H71.9533V15.6001H71.0403Z" fill="black" stroke="black" stroke-width="0.411304" stroke-miterlimit="10"/>
<path d="M76.006 15.6001H75.0934V9.28815H73.1023V8.40015H77.9853V9.28815H76.006V15.6001Z" fill="black" stroke="black" stroke-width="0.411304" stroke-miterlimit="10"/>
<path d="M87.2418 14.6639C86.8995 15.0107 86.493 15.2859 86.0456 15.4737C85.5982 15.6614 85.1187 15.758 84.6344 15.758C84.1501 15.758 83.6705 15.6614 83.2231 15.4737C82.7757 15.2859 82.3693 15.0107 82.0269 14.6639C81.3569 13.9427 80.9839 12.99 80.9839 11.9999C80.9839 11.0098 81.3569 10.057 82.0269 9.33588C82.3619 8.97924 82.767 8.69776 83.2162 8.50965C83.6653 8.32155 84.1485 8.231 84.6344 8.24388C85.1196 8.23611 85.6012 8.32898 86.0496 8.51678C86.498 8.70459 86.9038 8.98334 87.2418 9.33588C87.5826 9.68687 87.8504 10.1034 88.0296 10.561C88.2087 11.0185 88.2955 11.5078 88.2847 11.9999C88.3003 12.4926 88.2157 12.9832 88.0363 13.4415C87.8569 13.8997 87.5865 14.3158 87.2418 14.6639ZM82.7025 14.0639C82.955 14.3229 83.2558 14.5286 83.5874 14.669C83.919 14.8094 84.2749 14.8817 84.6344 14.8817C84.9938 14.8817 85.3497 14.8094 85.6813 14.669C86.0129 14.5286 86.3137 14.3229 86.5662 14.0639C87.0776 13.5012 87.3615 12.7645 87.3615 11.9999C87.3615 11.2352 87.0776 10.4985 86.5662 9.93588C86.3137 9.67683 86.0129 9.47113 85.6813 9.33074C85.3497 9.19035 84.9938 9.11805 84.6344 9.11805C84.2749 9.11805 83.919 9.19035 83.5874 9.33074C83.2558 9.47113 82.955 9.67683 82.7025 9.93588C82.1911 10.4985 81.9073 11.2352 81.9073 11.9999C81.9073 12.7645 82.1911 13.5012 82.7025 14.0639Z" fill="black" stroke="black" stroke-width="0.411304" stroke-miterlimit="10"/>
<path d="M89.5764 15.6001V8.40015H90.6786L94.1394 14.0041V12.6121V8.40015H95.052V15.6001H94.1038L90.489 9.73215V11.1121V15.6001H89.5764Z" fill="black" stroke="black" stroke-width="0.411304" stroke-miterlimit="10"/>
<path d="M80.7584 26.1001C79.7598 26.1025 78.7844 26.4046 77.9554 26.9683C77.1264 27.532 76.4811 28.3319 76.1012 29.2669C75.7212 30.2019 75.6236 31.23 75.8207 32.2212C76.0178 33.2123 76.5008 34.122 77.2086 34.8353C77.9163 35.5485 78.8171 36.0333 79.7969 36.2282C80.7767 36.4231 81.7917 36.3195 82.7133 35.9304C83.635 35.5413 84.422 34.8842 84.9748 34.0422C85.5277 33.2002 85.8215 32.2112 85.8191 31.2001C85.8288 30.5256 85.7043 29.8561 85.4531 29.2313C85.2019 28.6066 84.8291 28.0394 84.3569 27.5635C83.8847 27.0877 83.3228 26.7129 82.7046 26.4615C82.0864 26.21 81.4245 26.0872 80.7584 26.1001ZM80.7584 34.2961C80.1463 34.3394 79.5356 34.1954 79.0055 33.8826C78.4754 33.5698 78.0505 33.1028 77.786 32.5422C77.5215 31.9817 77.4297 31.3536 77.5225 30.7395C77.6152 30.1254 77.8883 29.5538 78.3062 29.0989C78.7241 28.6441 79.2675 28.3271 79.8657 28.189C80.4639 28.051 81.0893 28.0984 81.6605 28.325C82.2318 28.5516 82.7225 28.947 83.0689 29.4597C83.4153 29.9725 83.6014 30.5789 83.6028 31.2001C83.6219 31.5937 83.563 31.9872 83.4295 32.3574C83.296 32.7276 83.0906 33.067 82.8255 33.3555C82.5604 33.6441 82.2409 33.8759 81.8859 34.0375C81.5309 34.199 81.1475 34.287 80.7584 34.2961ZM69.7125 26.1001C68.7139 26.1025 67.7384 26.4046 66.9095 26.9683C66.0805 27.532 65.4352 28.3319 65.0552 29.2669C64.6753 30.2019 64.5777 31.23 64.7748 32.2212C64.9719 33.2123 65.4549 34.122 66.1626 34.8353C66.8704 35.5485 67.7711 36.0333 68.751 36.2282C69.7308 36.4231 70.7457 36.3195 71.6674 35.9304C72.5891 35.5413 73.3761 34.8842 73.9289 34.0422C74.4817 33.2002 74.7756 32.2112 74.7732 31.2001C74.7829 30.5256 74.6584 29.8561 74.4072 29.2313C74.156 28.6066 73.7832 28.0394 73.311 27.5635C72.8388 27.0877 72.2769 26.7129 71.6587 26.4615C71.0404 26.21 70.3786 26.0872 69.7125 26.1001ZM69.7125 34.2961C69.1004 34.3394 68.4896 34.1954 67.9595 33.8826C67.4294 33.5698 67.0045 33.1028 66.7401 32.5422C66.4756 31.9817 66.3838 31.3536 66.4765 30.7395C66.5693 30.1254 66.8424 29.5538 67.2603 29.0989C67.6782 28.6441 68.2215 28.3271 68.8198 28.189C69.418 28.051 70.0434 28.0984 70.6146 28.325C71.1859 28.5516 71.6766 28.947 72.023 29.4597C72.3694 29.9725 72.5554 30.5789 72.5569 31.2001C72.576 31.5937 72.5171 31.9872 72.3836 32.3574C72.2501 32.7276 72.0447 33.067 71.7796 33.3555C71.5145 33.6441 71.195 33.8759 70.84 34.0375C70.485 34.199 70.1016 34.287 69.7125 34.2961ZM56.5806 27.6721V29.8321H61.7006C61.6203 30.8495 61.2027 31.8095 60.5154 32.5561C60.0018 33.0859 59.3841 33.5007 58.7022 33.7735C58.0203 34.0464 57.2895 34.1713 56.5569 34.1401C55.0481 34.1401 53.6011 33.5332 52.5343 32.453C51.4674 31.3728 50.868 29.9078 50.868 28.3801C50.868 26.8525 51.4674 25.3874 52.5343 24.3072C53.6011 23.227 55.0481 22.6201 56.5569 22.6201C58.0034 22.5983 59.4001 23.1545 60.4443 24.1681L61.9495 22.6441C61.2431 21.9367 60.4044 21.3792 59.4825 21.0041C58.5606 20.6291 57.574 20.4442 56.5806 20.4601C55.527 20.4186 54.4759 20.5929 53.4904 20.9725C52.5049 21.3521 51.6052 21.9292 50.8452 22.6693C50.0853 23.4094 49.4807 24.2972 49.0677 25.2795C48.6548 26.2619 48.4419 27.3185 48.4419 28.3861C48.4419 29.4537 48.6548 30.5103 49.0677 31.4927C49.4807 32.475 50.0853 33.3628 50.8452 34.1029C51.6052 34.843 52.5049 35.4201 53.4904 35.7997C54.4759 36.1794 55.527 36.3536 56.5806 36.3121C57.5945 36.3531 58.6054 36.1765 59.547 35.7939C60.4887 35.4113 61.3397 34.8313 62.0443 34.0921C63.2889 32.7078 63.9521 30.8871 63.8932 29.0161C63.8975 28.5658 63.8618 28.116 63.7865 27.6721H56.5806ZM110.281 29.3521C109.972 28.4314 109.394 27.6274 108.624 27.0467C107.854 26.466 106.927 26.1359 105.967 26.1001C105.319 26.0988 104.677 26.2322 104.082 26.4919C103.487 26.7517 102.95 27.1323 102.506 27.6103C102.061 28.0883 101.719 28.6535 101.499 29.271C101.279 29.8884 101.186 30.545 101.227 31.2001C101.216 32.2955 101.557 33.3649 102.196 34.2484C102.836 35.132 103.741 35.7823 104.775 36.1023C105.81 36.4223 106.919 36.3947 107.937 36.0237C108.955 35.6528 109.828 34.9583 110.424 34.0441L108.705 32.8441C108.449 33.2764 108.086 33.6335 107.651 33.8797C107.217 34.126 106.726 34.253 106.228 34.2481C105.714 34.2696 105.206 34.1332 104.771 33.8569C104.335 33.5807 103.992 33.1774 103.787 32.7001L110.53 29.8801L110.281 29.3521ZM103.407 31.0561C103.383 30.6834 103.433 30.3095 103.553 29.9564C103.674 29.6034 103.863 29.2782 104.109 28.9999C104.355 28.7217 104.653 28.4959 104.987 28.3359C105.32 28.1759 105.682 28.0849 106.05 28.0681C106.432 28.0445 106.812 28.1355 107.143 28.3298C107.474 28.524 107.741 28.8129 107.911 29.1601L103.407 31.0561ZM97.9317 36.0001H100.148V21.0001H97.9317V36.0001ZM94.3051 27.2401H94.2221C93.891 26.8583 93.4824 26.5535 93.0242 26.3464C92.566 26.1392 92.069 26.0348 91.5673 26.0401C90.2721 26.1037 89.0507 26.6694 88.1563 27.62C87.2619 28.5706 86.7629 29.8332 86.7629 31.1461C86.7629 32.459 87.2619 33.7216 88.1563 34.6722C89.0507 35.6228 90.2721 36.1885 91.5673 36.2521C92.0698 36.2623 92.5683 36.16 93.0272 35.9526C93.4861 35.7452 93.8941 35.4377 94.2221 35.0521H94.3051V35.7841C94.3051 37.7401 93.274 38.7841 91.6147 38.7841C91.0604 38.7718 90.5223 38.5929 90.0686 38.2703C89.6149 37.9477 89.2661 37.4958 89.0666 36.9721L87.1465 37.7761C87.5015 38.6788 88.1187 39.4512 88.9165 39.9911C89.7143 40.5311 90.6552 40.8132 91.6147 40.8001C94.2103 40.8001 96.3554 39.2521 96.3554 35.4841V26.4001H94.3051V27.2401ZM91.7569 34.2961C90.9804 34.2471 90.2515 33.9002 89.7188 33.3261C89.186 32.752 88.8894 31.9939 88.8894 31.2061C88.8894 30.4183 89.186 29.6602 89.7188 29.0861C90.2515 28.512 90.9804 28.1651 91.7569 28.1161C92.1365 28.1327 92.5088 28.2264 92.8519 28.3917C93.1949 28.5569 93.5016 28.7904 93.7537 29.0781C94.0058 29.3658 94.1982 29.702 94.3194 30.0665C94.4406 30.4311 94.4881 30.8166 94.4591 31.2001C94.4915 31.5849 94.4464 31.9724 94.3266 32.3391C94.2068 32.7058 94.0148 33.044 93.7622 33.3334C93.5096 33.6229 93.2017 33.8574 92.857 34.0228C92.5123 34.1883 92.1381 34.2813 91.7569 34.2961ZM120.664 21.0001H115.354V36.0001H117.57V30.3121H120.664C121.295 30.358 121.929 30.2717 122.527 30.0586C123.124 29.8454 123.671 29.5099 124.135 29.0731C124.599 28.6362 124.968 28.1074 125.221 27.5195C125.474 26.9316 125.604 26.2973 125.604 25.6561C125.604 25.0149 125.474 24.3806 125.221 23.7927C124.968 23.2048 124.599 22.676 124.135 22.2391C123.671 21.8023 123.124 21.4668 122.527 21.2536C121.929 21.0405 121.295 20.9542 120.664 21.0001ZM120.664 28.2001H117.57V23.0881H120.711C121.044 23.0881 121.374 23.1545 121.682 23.2836C121.989 23.4126 122.269 23.6018 122.504 23.8403C122.74 24.0787 122.927 24.3618 123.054 24.6734C123.182 24.9849 123.247 25.3189 123.247 25.6561C123.247 25.9933 123.182 26.3273 123.054 26.6388C122.927 26.9504 122.74 27.2335 122.504 27.472C122.269 27.7104 121.989 27.8996 121.682 28.0286C121.374 28.1577 121.044 28.2241 120.711 28.2241L120.664 28.2001ZM134.341 26.0521C133.534 26.0017 132.73 26.192 132.028 26.5993C131.327 27.0067 130.759 27.6133 130.394 28.3441L132.35 29.1721C132.547 28.8114 132.844 28.5163 133.203 28.3225C133.563 28.1288 133.97 28.0446 134.376 28.0801C134.658 28.0468 134.943 28.0706 135.215 28.1501C135.487 28.2296 135.741 28.3631 135.961 28.543C136.182 28.7228 136.365 28.9453 136.5 29.1976C136.635 29.4498 136.719 29.7267 136.747 30.0121V30.1561C136.034 29.7768 135.241 29.5791 134.435 29.5801C132.326 29.5801 130.169 30.7801 130.169 32.9641C130.19 33.4283 130.302 33.8835 130.5 34.3028C130.698 34.722 130.978 35.0966 131.322 35.4044C131.665 35.7123 132.067 35.947 132.502 36.0947C132.937 36.2423 133.397 36.3 133.855 36.2641C134.411 36.2953 134.965 36.1761 135.461 35.9188C135.957 35.6616 136.376 35.2755 136.675 34.8001H136.747V36.0001H138.88V30.2281C138.88 27.6001 136.912 26.0761 134.388 26.0761L134.341 26.0521ZM134.068 34.2721C133.345 34.2721 132.338 33.9001 132.338 33.0001C132.338 31.8001 133.594 31.3921 134.708 31.3921C135.412 31.3745 136.108 31.5486 136.723 31.8961C136.648 32.5478 136.343 33.1501 135.864 33.5914C135.384 34.0326 134.763 34.283 134.115 34.2961L134.068 34.2721ZM146.655 26.4001L144.118 32.9041H144.047L141.416 26.4001H139.046L142.992 35.4961L140.741 40.5481H143.052L149.12 26.4001H146.655ZM126.744 36.0001H128.948V21.0001H126.744V36.0001Z" fill="black"/>
<path d="M12.3732 9.04811C11.9826 9.51566 11.7833 10.1167 11.8161 10.7281V37.2721C11.7758 37.8846 11.976 38.4884 12.3732 38.9521L12.4561 39.0481L27.1406 24.1801V23.8201L12.4561 8.96411L12.3732 9.04811Z" fill="url(#paint0_linear_458_3184)"/>
<path d="M31.9999 29.136L27.1406 24.18V23.82L31.9999 18.864L32.1065 18.936L37.9258 22.272C39.5851 23.22 39.5851 24.78 37.9258 25.74L32.1303 29.076L31.9999 29.136Z" fill="url(#paint1_linear_458_3184)"/>
<path d="M32.1419 29.064L27.1405 24L12.373 38.952C12.7079 39.2538 13.1366 39.4275 13.5847 39.4428C14.0328 39.4582 14.4721 39.3142 14.8264 39.036L32.1419 29.064Z" fill="url(#paint2_linear_458_3184)"/>
<path d="M32.1419 18.936L14.8264 8.97601C14.4744 8.69391 14.0355 8.54648 13.5868 8.55965C13.138 8.57282 12.7083 8.74574 12.373 9.04801L27.1405 24L32.1419 18.936Z" fill="url(#paint3_linear_458_3184)"/>
<path opacity="0.2" d="M31.9997 28.9559L14.8264 38.8559C14.485 39.1168 14.0689 39.2579 13.6412 39.2579C13.2135 39.2579 12.7974 39.1168 12.456 38.8559L12.373 38.9399L12.456 39.0359C12.7974 39.2968 13.2135 39.4379 13.6412 39.4379C14.0689 39.4379 14.485 39.2968 14.8264 39.0359L32.1419 29.0639L31.9997 28.9559Z" fill="black"/>
<path opacity="0.12" d="M12.3737 38.784C11.9929 38.3081 11.8062 37.7028 11.852 37.092V37.272C11.8117 37.8845 12.012 38.4883 12.4093 38.952L12.4923 38.868L12.3737 38.784Z" fill="black"/>
<path opacity="0.12" d="M37.9262 25.56L32.0002 28.956L32.1069 29.064L37.9262 25.728C38.2697 25.5809 38.5677 25.3428 38.7887 25.0387C39.0098 24.7346 39.1458 24.3758 39.1825 24C39.1084 24.3415 38.9561 24.6606 38.7379 24.9315C38.5196 25.2025 38.2416 25.4178 37.9262 25.56Z" fill="black"/>
<path opacity="0.25" d="M14.827 9.14402L37.9263 22.44C38.2417 22.5823 38.5198 22.7975 38.738 23.0685C38.9562 23.3395 39.1085 23.6585 39.1826 24C39.146 23.6242 39.0099 23.2654 38.7889 22.9613C38.5678 22.6572 38.2698 22.4191 37.9263 22.272L14.827 8.97602C13.1796 8.01602 11.8167 8.80802 11.8167 10.728V10.908C11.8522 8.98802 13.1796 8.19602 14.827 9.14402Z" fill="white"/>
</g>
<defs>
<linearGradient id="paint0_linear_458_3184" x1="25.8369" y1="10.4521" x2="5.70243" y2="30.338" gradientUnits="userSpaceOnUse">
<stop stop-color="#00A0FF"/>
<stop offset="0.01" stop-color="#00A1FF"/>
<stop offset="0.26" stop-color="#00BEFF"/>
<stop offset="0.51" stop-color="#00D2FF"/>
<stop offset="0.76" stop-color="#00DFFF"/>
<stop offset="1" stop-color="#00E3FF"/>
</linearGradient>
<linearGradient id="paint1_linear_458_3184" x1="40.0947" y1="24" x2="11.4251" y2="24" gradientUnits="userSpaceOnUse">
<stop stop-color="#FFE000"/>
<stop offset="0.41" stop-color="#FFBD00"/>
<stop offset="0.78" stop-color="#FFA500"/>
<stop offset="1" stop-color="#FF9C00"/>
</linearGradient>
<linearGradient id="paint2_linear_458_3184" x1="29.4279" y1="26.76" x2="2.11811" y2="53.7207" gradientUnits="userSpaceOnUse">
<stop stop-color="#FF3A44"/>
<stop offset="1" stop-color="#C31162"/>
</linearGradient>
<linearGradient id="paint3_linear_458_3184" x1="8.65157" y1="0.216013" x2="20.8426" y2="12.2566" gradientUnits="userSpaceOnUse">
<stop stop-color="#32A071"/>
<stop offset="0.07" stop-color="#2DA771"/>
<stop offset="0.48" stop-color="#15CF74"/>
<stop offset="0.8" stop-color="#06E775"/>
<stop offset="1" stop-color="#00F076"/>
</linearGradient>
<clipPath id="clip0_458_3184">
<rect width="160" height="48" rx="8" fill="white"/>
</clipPath>
</defs>
</svg>
