<svg width="160" height="48" viewBox="0 0 160 48" fill="none" xmlns="http://www.w3.org/2000/svg">
<path d="M147.264 3.33971e-05H12.8104C12.3203 3.33971e-05 11.8361 3.33972e-05 11.3473 0.0024252C10.9381 0.00481701 10.5322 0.0117652 10.1191 0.0176132C9.22162 0.027063 8.32628 0.0977103 7.44083 0.228941C6.55662 0.363029 5.70011 0.615823 4.90027 0.978773C4.10141 1.34479 3.37147 1.8204 2.73692 2.38834C2.09905 2.95468 1.56733 3.60929 1.16221 4.327C0.755979 5.04329 0.474295 5.81085 0.32689 6.60319C0.178084 7.39453 0.09801 8.19499 0.0873869 8.99739C0.074984 9.36405 0.0736742 9.73194 0.0671387 10.0986V37.7411C0.0736742 38.1124 0.074984 38.4721 0.0873869 38.8436C0.0980133 39.6459 0.178087 40.4464 0.32689 41.2376C0.473888 42.0304 0.755589 42.7985 1.16221 43.515C1.56714 44.2304 2.09894 44.8824 2.73692 45.4456C3.36906 46.016 4.09948 46.4919 4.90027 46.8552C5.70011 47.2191 6.55652 47.4734 7.44083 47.6095C8.32643 47.7397 9.22168 47.8104 10.1191 47.821C10.5322 47.8291 10.9381 47.8338 11.3473 47.8338C11.8361 47.8362 12.3203 47.8362 12.8104 47.8362H147.264C147.744 47.8362 148.232 47.8362 148.713 47.8338C149.12 47.8338 149.538 47.8291 149.945 47.821C150.841 47.811 151.734 47.7403 152.618 47.6095C153.505 47.4724 154.365 47.2182 155.168 46.8552C155.968 46.4917 156.698 46.0158 157.33 45.4456C157.966 44.8802 158.499 44.2287 158.909 43.515C159.312 42.7979 159.591 42.03 159.736 41.2376C159.885 40.4462 159.968 39.646 159.984 38.8436C159.99 38.4721 159.99 38.1124 159.99 37.7411C160 37.3066 160 36.8745 160 36.433V11.4043C160 10.9664 160 10.5319 159.99 10.0986C159.99 9.73194 159.99 9.36405 159.984 8.99734C159.968 8.19487 159.885 7.39459 159.736 6.60314C159.591 5.81126 159.312 5.04376 158.909 4.32695C158.084 2.88837 156.776 1.71738 155.168 0.978665C154.365 0.616602 153.505 0.363876 152.618 0.228834C151.734 0.0970245 150.841 0.0263526 149.945 0.0174457C149.538 0.0116097 149.12 0.00460175 148.713 0.00226974C148.232 -0.00012207 147.744 -0.00012207 147.264 -0.00012207V3.33971e-05Z" fill="white"/>
<path d="M11.3537 46.7897C10.9465 46.7897 10.5492 46.785 10.1451 46.7769C9.30819 46.7671 8.4732 46.7019 7.64701 46.5818C6.87663 46.4631 6.13034 46.2423 5.43275 45.9266C4.74156 45.6135 4.11114 45.203 3.56564 44.7108C3.01224 44.2244 2.55151 43.6603 2.20171 43.0408C1.84805 42.4172 1.6033 41.7488 1.47598 41.0589C1.33849 40.3176 1.2641 39.568 1.25345 38.8166C1.24498 38.5644 1.23389 37.7246 1.23389 37.7246V10.0986C1.23389 10.0986 1.2457 9.27172 1.25352 9.0288C1.26371 8.27859 1.33767 7.53016 1.47475 6.78999C1.60231 6.09818 1.84725 5.42788 2.2011 4.80228C2.54961 4.18317 3.00778 3.61861 3.55785 3.13046C4.10729 2.63768 4.73973 2.22507 5.4321 1.90769C6.12808 1.59303 6.87296 1.37374 7.64178 1.25719C8.47069 1.13588 9.30858 1.0703 10.1484 1.06099L11.3544 1.04639H148.706L149.927 1.06157C150.759 1.07042 151.589 1.13542 152.41 1.25602C153.187 1.37403 153.94 1.59485 154.644 1.91119C156.031 2.55082 157.159 3.56276 157.871 4.80519C158.219 5.42648 158.461 6.09131 158.586 6.77714C158.725 7.52339 158.803 8.2777 158.819 9.03406C158.823 9.37274 158.823 9.73654 158.823 10.0986C158.833 10.547 158.833 10.9739 158.833 11.4043V36.4329C158.833 36.8674 158.833 37.2913 158.823 37.7188C158.823 38.1077 158.823 38.4639 158.817 38.8306C158.802 39.5735 158.726 40.3143 158.589 41.0472C158.464 41.7421 158.221 42.4157 157.867 43.0444C157.515 43.6572 157.057 44.2164 156.51 44.7015C155.964 45.1964 155.332 45.6093 154.64 45.9243C153.938 46.2424 153.186 46.4641 152.41 46.5818C151.584 46.7026 150.749 46.7678 149.912 46.7769C149.521 46.785 149.111 46.7897 148.713 46.7897L147.264 46.7921L11.3537 46.7897Z" fill="white"/>
<path d="M34.4715 24.0294C34.4882 22.7299 34.8321 21.4558 35.4713 20.3255C36.1104 19.1953 37.024 18.2457 38.1271 17.5651C37.4264 16.5606 36.5019 15.734 35.4272 15.1509C34.3524 14.5677 33.157 14.2441 31.9358 14.2058C29.3309 13.9313 26.8055 15.7702 25.4781 15.7702C24.125 15.7702 22.0812 14.233 19.8804 14.2785C18.4568 14.3246 17.0695 14.7401 15.8535 15.4844C14.6375 16.2287 13.6343 17.2764 12.9417 18.5255C9.94166 23.7386 12.1794 31.4002 15.0533 35.6141C16.4912 37.6775 18.1716 39.9824 20.3704 39.9007C22.5221 39.8111 23.3257 38.5237 25.923 38.5237C28.4962 38.5237 29.2501 39.9007 31.4936 39.8487C33.8024 39.8111 35.2571 37.7761 36.6445 35.6932C37.6776 34.2229 38.4726 32.5979 39 30.8784C37.6586 30.309 36.5139 29.3559 35.7086 28.138C34.9033 26.92 34.4731 25.4911 34.4715 24.0294Z" fill="black"/>
<path d="M30.2337 11.4345C31.4926 9.9178 32.1128 7.96828 31.9627 6C30.0394 6.20274 28.2628 7.12529 26.9869 8.58383C26.3631 9.29637 25.8853 10.1253 25.5808 11.0233C25.2764 11.9213 25.1513 12.8706 25.2127 13.8172C26.1747 13.8271 27.1264 13.6178 27.9961 13.2051C28.8658 12.7924 29.6309 12.187 30.2337 11.4345Z" fill="black"/>
<path d="M60.3836 32.4564H54.7434L53.389 36.4704H51L56.3423 21.6196H58.8243L64.1666 36.4704H61.737L60.3836 32.4564ZM55.3276 30.6041H59.7984L57.5944 24.0897H57.5327L55.3276 30.6041Z" fill="black"/>
<path d="M75.7044 31.0574C75.7044 34.422 73.91 36.5838 71.2022 36.5838C70.5163 36.6198 69.8341 36.4612 69.2338 36.1262C68.6335 35.7912 68.1393 35.2932 67.8079 34.6895H67.7567V40.0523H65.5422V25.6431H67.6857V27.444H67.7264C68.0731 26.8431 68.5756 26.3477 69.1805 26.0107C69.7854 25.6736 70.47 25.5074 71.1615 25.5298C73.8996 25.5298 75.7044 27.7021 75.7044 31.0574ZM73.4283 31.0574C73.4283 28.8653 72.2996 27.4241 70.5774 27.4241C68.8854 27.4241 67.7474 28.8956 67.7474 31.0574C67.7474 33.239 68.8854 34.7 70.5774 34.7C72.2996 34.7 73.4282 33.2693 73.4282 31.0574H73.4283Z" fill="black"/>
<path d="M87.5787 31.0574C87.5787 34.422 85.7838 36.5838 83.076 36.5838C82.3901 36.6198 81.7079 36.4612 81.1076 36.1262C80.5073 35.7912 80.0131 35.2932 79.6817 34.6895H79.6304V40.0523H77.416V25.6431H79.5595V27.444H79.6002C79.9469 26.8431 80.4494 26.3477 81.0543 26.0107C81.6591 25.6736 82.3438 25.5074 83.0353 25.5298C85.7734 25.5298 87.5787 27.7021 87.5787 31.0574ZM85.3021 31.0574C85.3021 28.8653 84.1733 27.4241 82.4511 27.4241C80.7592 27.4241 79.6212 28.8956 79.6212 31.0574C79.6212 33.239 80.7592 34.7 82.4511 34.7C84.1733 34.7 85.3021 33.2693 85.3021 31.0574Z" fill="black"/>
<path d="M95.425 32.3326C95.5891 33.8053 97.0146 34.7723 98.9625 34.7723C100.829 34.7723 102.172 33.8053 102.172 32.4774C102.172 31.3247 101.362 30.6345 99.4443 30.1615L97.5266 29.6979C94.8095 29.0392 93.5481 27.7639 93.5481 25.6944C93.5481 23.1321 95.773 21.3721 98.9311 21.3721C102.059 21.3721 104.202 23.1321 104.275 25.6944H102.039C101.905 24.2123 100.685 23.3178 98.9008 23.3178C97.117 23.3178 95.8963 24.2229 95.8963 25.5402C95.8963 26.5901 96.676 27.2079 98.5832 27.6809L100.213 28.0826C103.249 28.8032 104.51 30.0272 104.51 32.1994C104.51 34.9778 102.306 36.7179 98.7984 36.7179C95.5169 36.7179 93.3013 35.0186 93.1582 32.3325L95.425 32.3326Z" fill="black"/>
<path d="M109.291 23.0807V25.643H111.343V27.403H109.291V33.372C109.291 34.2993 109.702 34.7314 110.604 34.7314C110.847 34.7271 111.091 34.71 111.332 34.68V36.4295C110.927 36.5055 110.515 36.5399 110.102 36.5322C107.918 36.5322 107.066 35.7089 107.066 33.609V27.403H105.498V25.643H107.066V23.0807H109.291Z" fill="black"/>
<path d="M112.53 31.0574C112.53 27.6507 114.529 25.51 117.646 25.51C120.774 25.51 122.764 27.6507 122.764 31.0574C122.764 34.4734 120.784 36.6048 117.646 36.6048C114.509 36.6048 112.53 34.4734 112.53 31.0574ZM120.507 31.0574C120.507 28.7205 119.44 27.3412 117.646 27.3412C115.852 27.3412 114.785 28.731 114.785 31.0574C114.785 33.4037 115.852 34.7724 117.646 34.7724C119.44 34.7724 120.507 33.4037 120.507 31.0574H120.507Z" fill="black"/>
<path d="M124.589 25.643H126.701V27.4859H126.753C126.896 26.9103 127.231 26.4017 127.704 26.0454C128.177 25.6892 128.757 25.5071 129.348 25.5297C129.603 25.5288 129.857 25.5566 130.106 25.6126V27.6915C129.784 27.5927 129.448 27.5473 129.111 27.5572C128.79 27.5441 128.469 27.601 128.171 27.724C127.873 27.8471 127.606 28.0333 127.387 28.27C127.167 28.5066 127.002 28.7881 126.901 29.095C126.801 29.402 126.767 29.7272 126.804 30.0482V36.4704H124.589L124.589 25.643Z" fill="black"/>
<path d="M140.316 33.2904C140.018 35.2559 138.111 36.6048 135.671 36.6048C132.533 36.6048 130.585 34.4945 130.585 31.1088C130.585 27.7126 132.543 25.51 135.578 25.51C138.563 25.51 140.44 27.5678 140.44 30.8507V31.6122H132.82V31.7465C132.785 32.1449 132.835 32.5464 132.966 32.9241C133.097 33.3018 133.307 33.6471 133.582 33.9372C133.856 34.2273 134.189 34.4554 134.558 34.6064C134.927 34.7575 135.324 34.828 135.722 34.8133C136.246 34.8625 136.771 34.7409 137.22 34.4665C137.668 34.1921 138.017 33.7796 138.214 33.2904L140.316 33.2904ZM132.831 30.0589H138.224C138.244 29.7006 138.19 29.342 138.065 29.0057C137.94 28.6694 137.748 28.3627 137.499 28.1046C137.251 27.8466 136.952 27.6429 136.621 27.5063C136.291 27.3697 135.935 27.3032 135.578 27.3109C135.217 27.3087 134.86 27.3782 134.526 27.5155C134.192 27.6527 133.889 27.8549 133.634 28.1104C133.378 28.3658 133.176 28.6696 133.038 29.004C132.9 29.3384 132.83 29.697 132.831 30.0589V30.0589Z" fill="black"/>
<path d="M55.0508 10.4413C55.5151 10.4079 55.9809 10.4783 56.4148 10.6474C56.8487 10.8166 57.2397 11.0802 57.5598 11.4194C57.8798 11.7586 58.1209 12.1649 58.2655 12.6089C58.4102 13.0529 58.4548 13.5236 58.3963 13.987C58.3963 16.2667 57.1687 17.5771 55.0508 17.5771H52.4827V10.4413H55.0508ZM53.587 16.5679H54.9275C55.2592 16.5878 55.5912 16.5332 55.8993 16.4081C56.2073 16.283 56.4837 16.0906 56.7083 15.8447C56.9329 15.5989 57.1001 15.3059 57.1976 14.987C57.2952 14.6682 57.3207 14.3315 57.2722 14.0015C57.3172 13.6729 57.2891 13.3383 57.1901 13.0218C57.091 12.7053 56.9234 12.4146 56.6993 12.1708C56.4753 11.9269 56.2002 11.7358 55.8939 11.6111C55.5875 11.4865 55.2575 11.4313 54.9275 11.4497H53.587V16.5679Z" fill="black"/>
<path d="M59.6438 14.8822C59.6101 14.5283 59.6504 14.1713 59.7622 13.8339C59.874 13.4966 60.0549 13.1865 60.2931 12.9234C60.5314 12.6603 60.8218 12.4501 61.1457 12.3063C61.4696 12.1624 61.8199 12.0881 62.1742 12.0881C62.5284 12.0881 62.8787 12.1624 63.2026 12.3063C63.5265 12.4501 63.8169 12.6603 64.0552 12.9234C64.2934 13.1865 64.4743 13.4966 64.5861 13.8339C64.6979 14.1713 64.7382 14.5283 64.7045 14.8822C64.7389 15.2365 64.699 15.594 64.5875 15.9319C64.476 16.2698 64.2953 16.5805 64.0569 16.8441C63.8186 17.1077 63.528 17.3183 63.2038 17.4625C62.8795 17.6066 62.5288 17.6811 62.1742 17.6811C61.8195 17.6811 61.4688 17.6066 61.1445 17.4625C60.8203 17.3183 60.5297 17.1077 60.2914 16.8441C60.0531 16.5805 59.8723 16.2698 59.7608 15.9319C59.6493 15.594 59.6094 15.2365 59.6438 14.8822ZM63.6153 14.8822C63.6153 13.7149 63.0928 13.0323 62.1759 13.0323C61.2555 13.0323 60.7377 13.7149 60.7377 14.8822C60.7377 16.0589 61.2555 16.7362 62.1759 16.7362C63.0929 16.7362 63.6153 16.0542 63.6153 14.8822H63.6153Z" fill="black"/>
<path d="M71.4315 17.5771H70.333L69.2241 13.611H69.1403L68.036 17.5771H66.948L65.469 12.192H66.543L67.5042 16.3011H67.5833L68.6865 12.192H69.7023L70.8055 16.3011H70.8893L71.8458 12.192H72.9047L71.4315 17.5771Z" fill="black"/>
<path d="M74.1484 12.192H75.1678V13.0475H75.2469C75.3812 12.7402 75.6076 12.4827 75.8946 12.3107C76.1816 12.1387 76.5149 12.0609 76.8481 12.0881C77.1092 12.0684 77.3713 12.1079 77.6151 12.2037C77.8589 12.2994 78.0781 12.4491 78.2565 12.6414C78.4348 12.8338 78.5678 13.0639 78.6455 13.3149C78.7232 13.5658 78.7436 13.831 78.7053 14.091V17.577H77.6464V14.3578C77.6464 13.4925 77.2717 13.0621 76.4885 13.0621C76.3113 13.0538 76.1343 13.0841 75.9698 13.1508C75.8053 13.2176 75.6571 13.3193 75.5355 13.4489C75.4138 13.5785 75.3214 13.733 75.2648 13.9018C75.2082 14.0706 75.1886 14.2496 75.2074 14.4267V17.5771H74.1484L74.1484 12.192Z" fill="black"/>
<path d="M80.3928 10.0898H81.4517V17.5771H80.3928V10.0898Z" fill="black"/>
<path d="M82.9238 14.8823C82.8901 14.5284 82.9305 14.1713 83.0423 13.834C83.1541 13.4966 83.335 13.1865 83.5733 12.9234C83.8115 12.6603 84.102 12.4501 84.4259 12.3063C84.7499 12.1624 85.1002 12.0881 85.4544 12.0881C85.8087 12.0881 86.159 12.1624 86.483 12.3063C86.8069 12.4501 87.0973 12.6603 87.3356 12.9234C87.5739 13.1865 87.7547 13.4966 87.8666 13.834C87.9784 14.1713 88.0188 14.5284 87.9851 14.8823C88.0194 15.2366 87.9795 15.5941 87.868 15.932C87.7564 16.2699 87.5756 16.5806 87.3373 16.8442C87.099 17.1078 86.8084 17.3184 86.4841 17.4625C86.1598 17.6067 85.8091 17.6811 85.4544 17.6811C85.0998 17.6811 84.7491 17.6067 84.4248 17.4625C84.1005 17.3184 83.8099 17.1078 83.5716 16.8442C83.3332 16.5806 83.1525 16.2699 83.0409 15.932C82.9294 15.5941 82.8895 15.2366 82.9238 14.8823ZM86.8953 14.8823C86.8953 13.715 86.3728 13.0324 85.4559 13.0324C84.5355 13.0324 84.0177 13.715 84.0177 14.8823C84.0177 16.059 84.5355 16.7363 85.4559 16.7363C86.3728 16.7363 86.8953 16.0543 86.8953 14.8823H86.8953Z" fill="black"/>
<path d="M89.0999 16.0542C89.0999 15.0849 89.819 14.5261 91.0955 14.4466L92.5489 14.3626V13.8978C92.5489 13.329 92.1742 13.0078 91.4504 13.0078C90.8593 13.0078 90.4497 13.2256 90.3322 13.6064H89.307C89.4152 12.6814 90.2821 12.0881 91.4993 12.0881C92.8445 12.0881 93.6032 12.7602 93.6032 13.8978V17.5771H92.5838V16.8204H92.5C92.33 17.0918 92.0912 17.3131 91.808 17.4617C91.5249 17.6102 91.2075 17.6807 90.8884 17.6659C90.6631 17.6894 90.4355 17.6653 90.2201 17.5951C90.0047 17.5249 89.8063 17.4101 89.6378 17.2583C89.4693 17.1065 89.3344 16.9209 89.2417 16.7135C89.1491 16.5061 89.1007 16.2815 89.0999 16.0542ZM92.5489 15.5941V15.1439L91.2386 15.228C90.4997 15.2776 90.1646 15.5298 90.1646 16.0046C90.1646 16.4893 90.5835 16.7713 91.1595 16.7713C91.3283 16.7884 91.4988 16.7713 91.6609 16.721C91.8229 16.6707 91.9733 16.5881 92.1029 16.4783C92.2325 16.3685 92.3388 16.2336 92.4154 16.0817C92.492 15.9298 92.5374 15.764 92.5489 15.5941Z" fill="black"/>
<path d="M94.9949 14.8822C94.9949 13.1806 95.8665 12.1027 97.2221 12.1027C97.5574 12.0872 97.8902 12.1678 98.1816 12.3351C98.473 12.5024 98.7109 12.7495 98.8675 13.0475H98.9466V10.0898H100.006V17.5771H98.9908V16.7263H98.9071C98.7383 17.0223 98.4921 17.2663 98.1951 17.4319C97.8981 17.5975 97.5616 17.6784 97.2221 17.6658C95.8571 17.6659 94.9949 16.5879 94.9949 14.8822ZM96.0887 14.8822C96.0887 16.0244 96.6252 16.7117 97.5224 16.7117C98.4148 16.7117 98.9664 16.0145 98.9664 14.8869C98.9664 13.7646 98.4091 13.0574 97.5224 13.0574C96.631 13.0574 96.0887 13.7494 96.0887 14.8822H96.0887Z" fill="black"/>
<path d="M104.387 14.8822C104.353 14.5283 104.393 14.1713 104.505 13.8339C104.617 13.4966 104.798 13.1865 105.036 12.9234C105.274 12.6603 105.565 12.4501 105.889 12.3063C106.213 12.1624 106.563 12.0881 106.917 12.0881C107.271 12.0881 107.622 12.1624 107.946 12.3063C108.269 12.4501 108.56 12.6603 108.798 12.9234C109.036 13.1865 109.217 13.4966 109.329 13.8339C109.441 14.1713 109.481 14.5283 109.447 14.8822C109.482 15.2365 109.442 15.594 109.33 15.9319C109.219 16.2698 109.038 16.5805 108.8 16.8441C108.562 17.1077 108.271 17.3183 107.947 17.4625C107.622 17.6066 107.272 17.6811 106.917 17.6811C106.562 17.6811 106.212 17.6066 105.887 17.4625C105.563 17.3183 105.273 17.1077 105.034 16.8441C104.796 16.5805 104.615 16.2698 104.504 15.9319C104.392 15.594 104.352 15.2365 104.387 14.8822ZM108.358 14.8822C108.358 13.7149 107.836 13.0323 106.919 13.0323C105.998 13.0323 105.481 13.7149 105.481 14.8822C105.481 16.0589 105.998 16.7362 106.919 16.7362C107.836 16.7362 108.358 16.0542 108.358 14.8822Z" fill="black"/>
<path d="M110.868 12.192H111.888V13.0475H111.967C112.101 12.7402 112.327 12.4827 112.614 12.3107C112.901 12.1387 113.235 12.0609 113.568 12.0881C113.829 12.0684 114.091 12.1079 114.335 12.2037C114.579 12.2994 114.798 12.4491 114.976 12.6414C115.155 12.8338 115.287 13.0639 115.365 13.3149C115.443 13.5658 115.463 13.831 115.425 14.091V17.577H114.366V14.3578C114.366 13.4925 113.991 13.0621 113.208 13.0621C113.031 13.0538 112.854 13.0841 112.69 13.1508C112.525 13.2176 112.377 13.3193 112.255 13.4489C112.133 13.5785 112.041 13.733 111.985 13.9018C111.928 14.0706 111.908 14.2496 111.927 14.4267V17.5771H110.868V12.192Z" fill="black"/>
<path d="M121.408 10.8512V12.2164H122.571V13.1116H121.408V15.8807C121.408 16.4447 121.64 16.6917 122.167 16.6917C122.302 16.6913 122.437 16.6831 122.571 16.6672V17.5525C122.381 17.5866 122.188 17.6048 121.995 17.6068C120.817 17.6068 120.348 17.191 120.348 16.1528V13.1116H119.496V12.2164H120.348V10.8512H121.408Z" fill="black"/>
<path d="M124.017 10.0898H125.067V13.0574H125.15C125.291 12.7473 125.524 12.4883 125.817 12.3156C126.109 12.143 126.448 12.0652 126.787 12.0928C127.046 12.0786 127.306 12.1221 127.547 12.2202C127.788 12.3183 128.004 12.4686 128.181 12.6604C128.357 12.8521 128.49 13.0806 128.568 13.3295C128.646 13.5784 128.669 13.8416 128.634 14.1003V17.5771H127.574V14.3625C127.574 13.5024 127.175 13.0667 126.427 13.0667C126.245 13.0518 126.062 13.0769 125.891 13.1403C125.719 13.2038 125.564 13.304 125.435 13.4341C125.307 13.5641 125.208 13.7208 125.146 13.8932C125.084 14.0655 125.06 14.2494 125.076 14.432V17.5771H124.017L124.017 10.0898Z" fill="black"/>
<path d="M134.809 16.1232C134.665 16.6154 134.353 17.0411 133.928 17.3259C133.503 17.6107 132.992 17.7365 132.484 17.6812C132.13 17.6905 131.779 17.6226 131.454 17.482C131.129 17.3415 130.839 17.1317 130.603 16.8672C130.367 16.6028 130.192 16.29 130.088 15.9505C129.985 15.6111 129.957 15.2532 130.005 14.9016C129.958 14.549 129.987 14.1903 130.09 13.8498C130.193 13.5094 130.368 13.1952 130.602 12.9284C130.837 12.6616 131.126 12.4485 131.45 12.3036C131.773 12.1586 132.124 12.0852 132.479 12.0882C133.972 12.0882 134.873 13.1119 134.873 14.8029V15.1738H131.084V15.2333C131.067 15.4309 131.092 15.6299 131.156 15.8173C131.221 16.0048 131.324 16.1766 131.458 16.3219C131.593 16.4671 131.756 16.5826 131.938 16.6608C132.119 16.739 132.315 16.7782 132.513 16.776C132.766 16.8066 133.023 16.7608 133.25 16.6445C133.477 16.5283 133.665 16.3468 133.789 16.1232L134.809 16.1232ZM131.084 14.3878H133.794C133.807 14.207 133.783 14.0255 133.722 13.8548C133.661 13.6841 133.566 13.5281 133.441 13.3967C133.317 13.2653 133.167 13.1615 133 13.092C132.833 13.0224 132.654 12.9886 132.473 12.9927C132.29 12.9904 132.108 13.0249 131.939 13.0942C131.769 13.1635 131.615 13.2662 131.485 13.3962C131.356 13.5262 131.254 13.681 131.185 13.8512C131.116 14.0215 131.081 14.204 131.084 14.3878H131.084Z" fill="black"/>
</svg>
