<svg width="143" height="48" viewBox="0 0 143 48" fill="none" xmlns="http://www.w3.org/2000/svg">
<g clip-path="url(#clip0_9_261)">
<path d="M131.301 -0.000332814H11.4284C10.9915 -0.000332814 10.5597 -0.000332814 10.124 0.00205899C9.75915 0.0044508 9.39726 0.011399 9.02896 0.017247C8.22883 0.0266968 7.43059 0.0973441 6.64116 0.228575C5.85285 0.362663 5.08923 0.615457 4.37613 0.978406C3.6639 1.34443 3.01312 1.82003 2.44739 2.38797C1.87869 2.95431 1.40464 3.60892 1.04345 4.32664C0.681276 5.04292 0.43014 5.81049 0.298721 6.60282C0.166052 7.39416 0.0946621 8.19462 0.085191 8.99702C0.0741332 9.36369 0.0729655 9.73157 0.0671387 10.0983V37.7407C0.0729655 38.112 0.0741332 38.4718 0.085191 38.8432C0.094665 39.6456 0.166055 40.446 0.298721 41.2373C0.429777 42.0301 0.680928 42.7981 1.04345 43.5146C1.40447 44.23 1.87859 44.882 2.44739 45.4452C3.01097 46.0157 3.66218 46.4916 4.37613 46.8548C5.08922 47.2187 5.85276 47.473 6.64116 47.6092C7.43072 47.7394 8.22888 47.81 9.02896 47.8206C9.39726 47.8287 9.75915 47.8334 10.124 47.8334C10.5597 47.8358 10.9915 47.8358 11.4284 47.8358H131.301C131.729 47.8358 132.164 47.8358 132.592 47.8334C132.955 47.8334 133.328 47.8287 133.691 47.8206C134.489 47.8106 135.286 47.7399 136.074 47.6092C136.865 47.4721 137.631 47.2178 138.348 46.8548C139.061 46.4914 139.712 46.0155 140.275 45.4452C140.842 44.8798 141.317 44.2283 141.683 43.5146C142.043 42.7976 142.291 42.0296 142.42 41.2373C142.553 40.4459 142.627 39.6456 142.642 38.8432C142.646 38.4718 142.646 38.112 142.646 37.7407C142.656 37.3062 142.656 36.8741 142.656 36.4326V11.404C142.656 10.966 142.656 10.5316 142.646 10.0983C142.646 9.73157 142.646 9.36369 142.642 8.99697C142.627 8.1945 142.553 7.39422 142.42 6.60278C142.291 5.8109 142.042 5.04339 141.683 4.32659C140.947 2.88801 139.781 1.71701 138.348 0.978299C137.631 0.616236 136.865 0.363509 136.074 0.228467C135.286 0.0966583 134.49 0.0259863 133.691 0.0170795C133.328 0.0112435 132.955 0.00423554 132.592 0.00190353C132.164 -0.000488281 131.729 -0.000488281 131.301 -0.000488281V-0.000332814Z" fill="#252525"/>
<path d="M10.1298 46.7897C9.76675 46.7897 9.41247 46.785 9.05227 46.7769C8.30609 46.7671 7.56165 46.7019 6.82505 46.5818C6.13822 46.4631 5.47286 46.2423 4.85093 45.9266C4.2347 45.6135 3.67264 45.203 3.1863 44.7108C2.69292 44.2244 2.28215 43.6603 1.97029 43.0408C1.65498 42.4172 1.43678 41.7488 1.32326 41.0589C1.20068 40.3176 1.13436 39.568 1.12487 38.8166C1.11731 38.5644 1.10742 37.7246 1.10742 37.7246V10.0986C1.10742 10.0986 1.11796 9.27172 1.12493 9.0288C1.13401 8.27859 1.19995 7.53016 1.32217 6.78999C1.43589 6.09818 1.65427 5.42788 1.96974 4.80228C2.28046 4.18317 2.68894 3.61861 3.17935 3.13046C3.66921 2.63768 4.23306 2.22507 4.85034 1.90769C5.47085 1.59303 6.13495 1.37374 6.82039 1.25719C7.55941 1.13588 8.30643 1.0703 9.0552 1.06099L10.1304 1.04639H132.587L133.675 1.06157C134.417 1.07042 135.157 1.13542 135.889 1.25602C136.581 1.37403 137.252 1.59485 137.88 1.91119C139.117 2.55082 140.123 3.56276 140.758 4.80519C141.068 5.42648 141.283 6.09131 141.395 6.77714C141.519 7.52339 141.588 8.2777 141.603 9.03406C141.606 9.37274 141.606 9.73654 141.606 10.0986C141.615 10.547 141.615 10.9739 141.615 11.4043V36.4329C141.615 36.8674 141.615 37.2913 141.606 37.7188C141.606 38.1077 141.606 38.4639 141.601 38.8306C141.587 39.5735 141.519 40.3143 141.398 41.0472C141.287 41.7421 141.069 42.4157 140.754 43.0444C140.44 43.6572 140.032 44.2164 139.544 44.7015C139.057 45.1964 138.494 45.6093 137.877 45.9243C137.251 46.2424 136.581 46.4641 135.889 46.5818C135.153 46.7026 134.408 46.7678 133.662 46.7769C133.313 46.785 132.947 46.7897 132.592 46.7897L131.301 46.7921L10.1298 46.7897Z" fill="#252525"/>
<path d="M29.8526 23.7857C29.8659 22.7477 30.1406 21.7299 30.6512 20.8271C31.1617 19.9243 31.8915 19.1658 32.7726 18.6221C32.2129 17.8198 31.4745 17.1595 30.616 16.6937C29.7575 16.2279 28.8026 15.9694 27.8272 15.9388C25.7464 15.7196 23.7292 17.1884 22.6688 17.1884C21.588 17.1884 19.9555 15.9606 18.1975 15.9969C17.0604 16.0337 15.9522 16.3656 14.9809 16.9601C14.0096 17.5546 13.2083 18.3915 12.6551 19.3893C10.2587 23.5534 12.0462 29.6733 14.3417 33.0393C15.4903 34.6876 16.8326 36.5287 18.589 36.4634C20.3077 36.3918 20.9496 35.3634 23.0242 35.3634C25.0796 35.3634 25.6818 36.4634 27.4739 36.4219C29.3182 36.3918 30.4801 34.7663 31.5884 33.1025C32.4136 31.9281 33.0486 30.6301 33.4699 29.2566C32.3984 28.8018 31.484 28.0404 30.8408 27.0676C30.1975 26.0947 29.8539 24.9533 29.8526 23.7857Z" fill="white"/>
<path d="M26.4678 13.7248C27.4734 12.5132 27.9688 10.956 27.8489 9.38379C26.3126 9.54573 24.8935 10.2826 23.8743 11.4477C23.376 12.0169 22.9944 12.679 22.7512 13.3963C22.508 14.1136 22.4081 14.8719 22.4571 15.628C23.2256 15.6359 23.9857 15.4688 24.6805 15.1391C25.3752 14.8094 25.9863 14.3259 26.4678 13.7248Z" fill="white"/>
<path d="M50.4729 32.4559H44.8327L43.4782 36.4699H41.0892L46.4315 21.6191H48.9136L54.2559 36.4699H51.8262L50.4729 32.4559ZM45.4168 30.6036H49.8876L47.6837 24.0892H47.6219L45.4168 30.6036Z" fill="white"/>
<path d="M65.7934 31.0569C65.7934 34.4215 63.999 36.5833 61.2912 36.5833C60.6053 36.6193 59.9231 36.4607 59.3228 36.1257C58.7225 35.7907 58.2283 35.2928 57.8969 34.689H57.8456V40.0519H55.6312V25.6426H57.7747V27.4435H57.8154C58.1621 26.8426 58.6646 26.3473 59.2695 26.0102C59.8744 25.6731 60.559 25.507 61.2505 25.5293C63.9886 25.5294 65.7934 27.7016 65.7934 31.0569ZM63.5173 31.0569C63.5173 28.8648 62.3885 27.4236 60.6663 27.4236C58.9744 27.4236 57.8364 28.8952 57.8364 31.0569C57.8364 33.2385 58.9744 34.6995 60.6663 34.6995C62.3886 34.6995 63.5172 33.2689 63.5172 31.0569H63.5173Z" fill="white"/>
<path d="M77.6678 31.0569C77.6678 34.4215 75.8729 36.5833 73.1651 36.5833C72.4791 36.6193 71.797 36.4607 71.1967 36.1257C70.5963 35.7907 70.1022 35.2928 69.7707 34.689H69.7195V40.0519H67.5051V25.6426H69.6485V27.4435H69.6892C70.0359 26.8426 70.5384 26.3473 71.1433 26.0102C71.7482 25.6731 72.4328 25.507 73.1243 25.5293C75.8624 25.5294 77.6678 27.7016 77.6678 31.0569ZM75.3911 31.0569C75.3911 28.8648 74.2624 27.4236 72.5402 27.4236C70.8483 27.4236 69.7102 28.8952 69.7102 31.0569C69.7102 33.2385 70.8483 34.6995 72.5402 34.6995C74.2624 34.6995 75.3911 33.2689 75.3911 31.0569Z" fill="white"/>
<path d="M85.5143 32.3321C85.6784 33.8048 87.1038 34.7718 89.0518 34.7718C90.9182 34.7718 92.2611 33.8048 92.2611 32.4769C92.2611 31.3242 91.4512 30.634 89.5335 30.161L87.6158 29.6974C84.8987 29.0387 83.6373 27.7634 83.6373 25.6939C83.6373 23.1316 85.8622 21.3716 89.0203 21.3716C92.1482 21.3716 94.2917 23.1316 94.3638 25.6939H92.1284C91.9946 24.2119 90.7739 23.3173 88.9901 23.3173C87.2062 23.3173 85.9855 24.2224 85.9855 25.5397C85.9855 26.5897 86.7652 27.2075 88.6724 27.6804L90.3027 28.0822C93.3386 28.8027 94.5988 30.0267 94.5988 32.1989C94.5988 34.9773 92.3949 36.7174 88.8876 36.7174C85.6061 36.7174 83.3906 35.0182 83.2474 32.332L85.5143 32.3321Z" fill="white"/>
<path d="M99.3803 23.0801V25.6424H101.432V27.4024H99.3803V33.3714C99.3803 34.2987 99.791 34.7308 100.693 34.7308C100.936 34.7265 101.18 34.7094 101.421 34.6794V36.4288C101.016 36.5049 100.604 36.5393 100.191 36.5316C98.0072 36.5316 97.1554 35.7083 97.1554 33.6084V27.4024H95.5868V25.6424H97.1554V23.0801H99.3803Z" fill="white"/>
<path d="M102.619 31.0567C102.619 27.65 104.618 25.5093 107.735 25.5093C110.863 25.5093 112.853 27.6499 112.853 31.0567C112.853 34.4727 110.874 36.6041 107.735 36.6041C104.598 36.6041 102.619 34.4727 102.619 31.0567ZM110.597 31.0567C110.597 28.7198 109.53 27.3405 107.735 27.3405C105.941 27.3405 104.874 28.7303 104.874 31.0567C104.874 33.4029 105.941 34.7717 107.735 34.7717C109.53 34.7717 110.597 33.4029 110.597 31.0567H110.597Z" fill="white"/>
<path d="M114.679 25.6425H116.791V27.4854H116.842C116.985 26.9098 117.321 26.4012 117.794 26.0449C118.266 25.6887 118.846 25.5066 119.437 25.5292C119.692 25.5283 119.947 25.5561 120.196 25.6122V27.691C119.874 27.5922 119.537 27.5468 119.201 27.5567C118.879 27.5436 118.558 27.6005 118.261 27.7235C117.963 27.8466 117.695 28.0328 117.476 28.2695C117.257 28.5061 117.091 28.7876 116.991 29.0946C116.89 29.4015 116.857 29.7267 116.893 30.0477V36.4699H114.679L114.679 25.6425Z" fill="white"/>
<path d="M130.405 33.2897C130.108 35.2552 128.2 36.6041 125.76 36.6041C122.622 36.6041 120.674 34.4937 120.674 31.1081C120.674 27.7119 122.632 25.5093 125.667 25.5093C128.652 25.5093 130.529 27.5671 130.529 30.85V31.6114H122.909V31.7457C122.874 32.1442 122.924 32.5456 123.055 32.9233C123.186 33.301 123.396 33.6464 123.671 33.9365C123.945 34.2265 124.278 34.4547 124.647 34.6057C125.016 34.7568 125.413 34.8273 125.811 34.8126C126.335 34.8618 126.86 34.7401 127.309 34.4657C127.758 34.1914 128.106 33.7789 128.303 33.2896L130.405 33.2897ZM122.92 30.0581H128.313C128.333 29.6999 128.279 29.3413 128.154 29.005C128.03 28.6687 127.837 28.3619 127.588 28.1039C127.34 27.8459 127.041 27.6421 126.71 27.5056C126.38 27.369 126.025 27.3024 125.667 27.3101C125.306 27.308 124.949 27.3775 124.615 27.5147C124.282 27.652 123.978 27.8541 123.723 28.1096C123.467 28.3651 123.265 28.6688 123.127 29.0033C122.989 29.3377 122.919 29.6962 122.92 30.0582V30.0581Z" fill="white"/>
<path d="M45.1398 10.4412C45.6041 10.4078 46.0699 10.4782 46.5038 10.6473C46.9377 10.8164 47.3287 11.0801 47.6488 11.4193C47.9688 11.7585 48.2098 12.1647 48.3545 12.6087C48.4992 13.0527 48.5438 13.5234 48.4853 13.9869C48.4853 16.2666 47.2577 17.577 45.1398 17.577H42.5717V10.4412H45.1398ZM43.6759 16.5678H45.0165C45.3482 16.5877 45.6802 16.5331 45.9883 16.408C46.2963 16.2829 46.5727 16.0904 46.7973 15.8446C47.0219 15.5988 47.1891 15.3058 47.2866 14.9869C47.3842 14.6681 47.4097 14.3314 47.3612 14.0014C47.4061 13.6727 47.3781 13.3382 47.279 13.0216C47.18 12.7051 47.0124 12.4145 46.7883 12.1706C46.5642 11.9268 46.2892 11.7356 45.9828 11.611C45.6765 11.4863 45.3465 11.4312 45.0165 11.4496H43.6759V16.5678Z" fill="white"/>
<path d="M49.7327 14.882C49.699 14.5281 49.7393 14.171 49.8512 13.8337C49.963 13.4964 50.1438 13.1862 50.382 12.9231C50.6203 12.6601 50.9107 12.4499 51.2346 12.306C51.5586 12.1622 51.9089 12.0879 52.2631 12.0879C52.6173 12.0879 52.9676 12.1622 53.2915 12.306C53.6155 12.4499 53.9059 12.6601 54.1441 12.9231C54.3824 13.1862 54.5632 13.4964 54.675 13.8337C54.7868 14.171 54.8272 14.5281 54.7934 14.882C54.8278 15.2362 54.7879 15.5938 54.6764 15.9317C54.5649 16.2695 54.3842 16.5802 54.1459 16.8438C53.9076 17.1074 53.617 17.3181 53.2927 17.4622C52.9684 17.6064 52.6177 17.6808 52.2631 17.6808C51.9084 17.6808 51.5577 17.6064 51.2335 17.4622C50.9092 17.3181 50.6186 17.1074 50.3803 16.8438C50.142 16.5802 49.9613 16.2695 49.8497 15.9317C49.7382 15.5938 49.6984 15.2362 49.7327 14.882ZM53.7042 14.882C53.7042 13.7147 53.1818 13.0321 52.2648 13.0321C51.3444 13.0321 50.8266 13.7147 50.8266 14.882C50.8266 16.0586 51.3444 16.736 52.2648 16.736C53.1818 16.736 53.7043 16.0539 53.7043 14.882H53.7042Z" fill="white"/>
<path d="M61.5204 17.577H60.422L59.313 13.6109H59.2292L58.1249 17.577H57.0369L55.5579 12.1919H56.632L57.5931 16.301H57.6723L58.7754 12.1919H59.7913L60.8944 16.301H60.9782L61.9347 12.1919H62.9936L61.5204 17.577Z" fill="white"/>
<path d="M64.2376 12.1918H65.2569V13.0472H65.336C65.4703 12.74 65.6967 12.4824 65.9837 12.3104C66.2707 12.1385 66.604 12.0606 66.9372 12.0878C67.1983 12.0681 67.4604 12.1076 67.7042 12.2034C67.948 12.2992 68.1672 12.4488 68.3456 12.6412C68.5239 12.8335 68.6569 13.0637 68.7346 13.3146C68.8123 13.5655 68.8327 13.8308 68.7944 14.0907V17.5768H67.7355V14.3576C67.7355 13.4922 67.3608 13.0618 66.5776 13.0618C66.4004 13.0536 66.2234 13.0838 66.0589 13.1506C65.8944 13.2174 65.7463 13.319 65.6246 13.4487C65.5029 13.5783 65.4106 13.7328 65.3539 13.9015C65.2973 14.0703 65.2777 14.2494 65.2965 14.4265V17.5768H64.2375L64.2376 12.1918Z" fill="white"/>
<path d="M70.4817 10.0898H71.5406V17.5771H70.4817V10.0898Z" fill="white"/>
<path d="M73.0126 14.8821C72.9788 14.5282 73.0192 14.1711 73.1311 13.8337C73.2429 13.4964 73.4238 13.1862 73.662 12.9232C73.9003 12.6601 74.1907 12.4499 74.5147 12.306C74.8386 12.1622 75.189 12.0879 75.5432 12.0879C75.8974 12.0879 76.2478 12.1622 76.5717 12.306C76.8957 12.4499 77.1861 12.6601 77.4244 12.9232C77.6626 13.1862 77.8435 13.4964 77.9553 13.8337C78.0672 14.1711 78.1075 14.5282 78.0738 14.8821C78.1081 15.2363 78.0683 15.5939 77.9567 15.9318C77.8451 16.2696 77.6644 16.5803 77.4261 16.8439C77.1877 17.1075 76.8971 17.3182 76.5728 17.4623C76.2486 17.6064 75.8978 17.6809 75.5432 17.6809C75.1885 17.6809 74.8378 17.6064 74.5135 17.4623C74.1893 17.3182 73.8986 17.1075 73.6603 16.8439C73.422 16.5803 73.2412 16.2696 73.1297 15.9318C73.0181 15.5939 72.9782 15.2363 73.0126 14.8821ZM76.9841 14.8821C76.9841 13.7148 76.4616 13.0322 75.5446 13.0322C74.6242 13.0322 74.1064 13.7148 74.1064 14.8821C74.1064 16.0587 74.6242 16.7361 75.5446 16.7361C76.4616 16.7361 76.9841 16.054 76.9841 14.8821H76.9841Z" fill="white"/>
<path d="M79.1886 16.054C79.1886 15.0846 79.9077 14.5258 81.1842 14.4464L82.6376 14.3623V13.8975C82.6376 13.3287 82.2629 13.0076 81.5392 13.0076C80.948 13.0076 80.5384 13.2254 80.4209 13.6061H79.3957C79.5039 12.6812 80.3709 12.0879 81.588 12.0879C82.9332 12.0879 83.6919 12.76 83.6919 13.8975V17.5769H82.6726V16.8201H82.5888C82.4187 17.0916 82.1799 17.3129 81.8968 17.4614C81.6136 17.61 81.2963 17.6804 80.9771 17.6656C80.7519 17.6891 80.5242 17.665 80.3088 17.5948C80.0934 17.5246 79.8951 17.4099 79.7266 17.2581C79.5581 17.1062 79.4231 16.9206 79.3305 16.7132C79.2378 16.5058 79.1895 16.2813 79.1886 16.054ZM82.6376 15.5938V15.1436L81.3274 15.2277C80.5885 15.2773 80.2533 15.5296 80.2533 16.0043C80.2533 16.489 80.6722 16.771 81.2483 16.771C81.4171 16.7882 81.5876 16.7711 81.7496 16.7208C81.9117 16.6704 82.062 16.5879 82.1916 16.478C82.3212 16.3682 82.4275 16.2333 82.5042 16.0814C82.5808 15.9295 82.6262 15.7637 82.6376 15.5938Z" fill="white"/>
<path d="M85.0837 14.8822C85.0837 13.1806 85.9553 12.1027 87.3109 12.1027C87.6462 12.0872 87.979 12.1678 88.2704 12.3351C88.5618 12.5024 88.7997 12.7495 88.9563 13.0475H89.0354V10.0898H90.0943V17.5771H89.0796V16.7263H88.9959C88.8271 17.0223 88.5809 17.2663 88.2839 17.4319C87.9869 17.5975 87.6504 17.6784 87.3109 17.6658C85.9459 17.6659 85.0837 16.5879 85.0837 14.8822ZM86.1775 14.8822C86.1775 16.0244 86.714 16.7117 87.6112 16.7117C88.5037 16.7117 89.0552 16.0145 89.0552 14.8869C89.0552 13.7646 88.4979 13.0574 87.6112 13.0574C86.7198 13.0574 86.1775 13.7494 86.1775 14.8822H86.1775Z" fill="white"/>
<path d="M94.4755 14.882C94.4418 14.5281 94.4821 14.171 94.594 13.8337C94.7058 13.4964 94.8866 13.1862 95.1248 12.9231C95.3631 12.6601 95.6535 12.4499 95.9774 12.306C96.3013 12.1622 96.6517 12.0879 97.0059 12.0879C97.3601 12.0879 97.7104 12.1622 98.0343 12.306C98.3583 12.4499 98.6486 12.6601 98.8869 12.9231C99.1251 13.1862 99.306 13.4964 99.4178 13.8337C99.5296 14.171 99.5699 14.5281 99.5362 14.882C99.5706 15.2362 99.5307 15.5938 99.4192 15.9317C99.3077 16.2695 99.127 16.5802 98.8887 16.8438C98.6504 17.1074 98.3597 17.3181 98.0355 17.4622C97.7112 17.6064 97.3605 17.6808 97.0059 17.6808C96.6512 17.6808 96.3005 17.6064 95.9763 17.4622C95.652 17.3181 95.3614 17.1074 95.1231 16.8438C94.8848 16.5802 94.7041 16.2695 94.5925 15.9317C94.481 15.5938 94.4412 15.2362 94.4755 14.882ZM98.447 14.882C98.447 13.7147 97.9246 13.0321 97.0076 13.0321C96.0872 13.0321 95.5694 13.7147 95.5694 14.882C95.5694 16.0586 96.0872 16.736 97.0076 16.736C97.9246 16.736 98.447 16.0539 98.447 14.882Z" fill="white"/>
<path d="M100.957 12.1918H101.976V13.0472H102.055C102.19 12.74 102.416 12.4824 102.703 12.3104C102.99 12.1385 103.323 12.0606 103.657 12.0878C103.918 12.0681 104.18 12.1076 104.424 12.2034C104.667 12.2992 104.887 12.4488 105.065 12.6412C105.243 12.8335 105.376 13.0637 105.454 13.3146C105.532 13.5655 105.552 13.8308 105.514 14.0907V17.5768H104.455V14.3576C104.455 13.4922 104.08 13.0618 103.297 13.0618C103.12 13.0536 102.943 13.0838 102.778 13.1506C102.614 13.2174 102.466 13.319 102.344 13.4487C102.222 13.5783 102.13 13.7328 102.073 13.9015C102.017 14.0703 101.997 14.2494 102.016 14.4265V17.5768H100.957V12.1918Z" fill="white"/>
<path d="M111.497 10.8516V12.2168H112.66V13.112H111.497V15.881C111.497 16.4451 111.729 16.6921 112.256 16.6921C112.391 16.6917 112.526 16.6835 112.66 16.6676V17.5528C112.47 17.587 112.277 17.6051 112.084 17.6071C110.906 17.6071 110.437 17.1914 110.437 16.1531V13.1119H109.585V12.2168H110.437V10.8516H111.497Z" fill="white"/>
<path d="M114.106 10.0898H115.156V13.0574H115.24C115.38 12.7473 115.613 12.4883 115.906 12.3156C116.199 12.143 116.537 12.0652 116.876 12.0928C117.135 12.0786 117.395 12.1221 117.636 12.2202C117.877 12.3183 118.094 12.4686 118.27 12.6604C118.447 12.8521 118.579 13.0806 118.657 13.3295C118.735 13.5784 118.758 13.8416 118.723 14.1003V17.5771H117.664V14.3625C117.664 13.5024 117.264 13.0667 116.516 13.0667C116.334 13.0518 116.151 13.0769 115.98 13.1403C115.808 13.2038 115.653 13.304 115.524 13.4341C115.396 13.5641 115.297 13.7208 115.235 13.8932C115.173 14.0655 115.149 14.2494 115.165 14.432V17.5771H114.106L114.106 10.0898Z" fill="white"/>
<path d="M124.898 16.123C124.754 16.6151 124.442 17.0409 124.017 17.3257C123.592 17.6105 123.081 17.7362 122.573 17.6809C122.219 17.6903 121.868 17.6223 121.543 17.4818C121.219 17.3412 120.928 17.1314 120.692 16.867C120.457 16.6025 120.281 16.2897 120.178 15.9503C120.074 15.6109 120.046 15.253 120.094 14.9014C120.047 14.5487 120.076 14.19 120.179 13.8496C120.282 13.5092 120.457 13.1949 120.692 12.9281C120.926 12.6614 121.215 12.4483 121.539 12.3033C121.863 12.1584 122.214 12.0849 122.568 12.088C124.061 12.088 124.962 13.1117 124.962 14.8027V15.1735H121.173V15.2331C121.156 15.4307 121.181 15.6296 121.246 15.8171C121.31 16.0045 121.413 16.1764 121.547 16.3216C121.682 16.4669 121.845 16.5823 122.027 16.6605C122.208 16.7387 122.404 16.778 122.602 16.7758C122.855 16.8063 123.112 16.7605 123.339 16.6443C123.566 16.528 123.754 16.3466 123.878 16.1229L124.898 16.123ZM121.173 14.3875H123.883C123.896 14.2068 123.872 14.0253 123.811 13.8546C123.751 13.6839 123.655 13.5279 123.531 13.3965C123.406 13.2651 123.256 13.1613 123.089 13.0917C122.922 13.0221 122.743 12.9883 122.562 12.9925C122.379 12.9902 122.197 13.0247 122.028 13.094C121.858 13.1633 121.704 13.266 121.575 13.396C121.445 13.526 121.343 13.6807 121.274 13.851C121.205 14.0213 121.171 14.2037 121.173 14.3875H121.173Z" fill="white"/>
</g>
<defs>
<clipPath id="clip0_9_261">
<rect width="142.588" height="47.8361" fill="white" transform="translate(0.0671387)"/>
</clipPath>
</defs>
</svg>
