<svg width="161" height="48" viewBox="0 0 161 48" fill="none" xmlns="http://www.w3.org/2000/svg">
<g clip-path="url(#clip0_9_260)">
<path d="M154.139 0H5.92841C2.65424 0 0 2.67712 0 5.97952V41.8566C0 45.159 2.65424 47.8361 5.92841 47.8361H154.139C157.413 47.8361 160.067 45.159 160.067 41.8566V5.97952C160.067 2.67712 157.413 0 154.139 0Z" fill="#252525"/>
<path d="M154.139 0.956723C155.459 0.956723 156.726 1.48591 157.66 2.42786C158.594 3.36982 159.118 4.64739 159.118 5.97952V41.8566C159.118 43.1887 158.594 44.4663 157.66 45.4083C156.726 46.3502 155.459 46.8794 154.139 46.8794H5.92841C4.60767 46.8794 3.34102 46.3502 2.40711 45.4083C1.47321 44.4663 0.948546 43.1887 0.948546 41.8566V5.97952C0.948546 4.64739 1.47321 3.36982 2.40711 2.42786C3.34102 1.48591 4.60767 0.956723 5.92841 0.956723H154.139ZM154.139 0H5.92841C4.3561 0 2.84818 0.629983 1.73639 1.75136C0.624598 2.87274 0 4.39365 0 5.97952V41.8566C0 43.4425 0.624598 44.9634 1.73639 46.0848C2.84818 47.2061 4.3561 47.8361 5.92841 47.8361H154.139C155.711 47.8361 157.219 47.2061 158.331 46.0848C159.442 44.9634 160.067 43.4425 160.067 41.8566V5.97952C160.067 4.39365 159.442 2.87274 158.331 1.75136C157.219 0.629983 155.711 0 154.139 0Z" fill="#252525"/>
<path d="M56.225 12.2461C56.2445 12.6847 56.1757 13.1227 56.0229 13.5337C55.8701 13.9448 55.6363 14.3204 55.3358 14.6379C54.9989 14.9886 54.5924 15.2637 54.1429 15.4451C53.6934 15.6264 53.211 15.71 52.7273 15.6903C52.2407 15.7012 51.7571 15.6113 51.3064 15.4262C50.8557 15.2411 50.4474 14.9646 50.1069 14.614C49.416 13.9012 49.0292 12.9439 49.0292 11.9471C49.0292 10.9503 49.416 9.99304 50.1069 9.28024C50.6351 8.75965 51.3041 8.40812 52.0298 8.26981C52.7555 8.13151 53.5055 8.2126 54.1856 8.50291C54.6132 8.68018 54.9946 8.95434 55.3002 9.30416L54.6718 9.93799C54.4363 9.6519 54.138 9.42511 53.8004 9.27564C53.4629 9.12617 53.0954 9.05814 52.7273 9.07694C52.2625 9.08018 51.8056 9.19819 51.3965 9.42066C50.9874 9.64313 50.6385 9.96327 50.3804 10.3531C50.1223 10.743 49.9628 11.1906 49.9159 11.657C49.8689 12.1234 49.9359 12.5943 50.111 13.0285C50.2862 13.4627 50.5641 13.8471 50.9205 14.148C51.2769 14.4489 51.7009 14.6571 52.1555 14.7545C52.6102 14.852 53.0815 14.8356 53.5284 14.7068C53.9753 14.5781 54.3842 14.3409 54.7192 14.016C55.0814 13.6155 55.2914 13.0987 55.312 12.557H52.7273V11.696H56.1776C56.2046 11.8782 56.2204 12.0619 56.225 12.2461Z" fill="white" stroke="white" stroke-width="0.411304" stroke-miterlimit="10"/>
<path d="M61.6554 9.25606H58.4541V11.5283H61.3708V12.3893H58.4541V14.6615H61.6554V15.5465H57.5292V8.37109H61.6554V9.25606Z" fill="white" stroke="white" stroke-width="0.411304" stroke-miterlimit="10"/>
<path d="M65.5445 15.5465H64.6315V9.25606H62.6396V8.37109H67.5839V9.25606H65.5445V15.5465Z" fill="white" stroke="white" stroke-width="0.411304" stroke-miterlimit="10"/>
<path d="M71.0698 15.5465V8.37109H71.9827V15.5465H71.0698Z" fill="white" stroke="white" stroke-width="0.411304" stroke-miterlimit="10"/>
<path d="M76.0377 15.5465H75.1248V9.25606H73.1328V8.37109H78.0178V9.25606H76.0377V15.5465Z" fill="white" stroke="white" stroke-width="0.411304" stroke-miterlimit="10"/>
<path d="M87.2781 14.6136C86.9356 14.9593 86.529 15.2336 86.0814 15.4207C85.6338 15.6078 85.1541 15.7041 84.6696 15.7041C84.1851 15.7041 83.7053 15.6078 83.2577 15.4207C82.8102 15.2336 82.4035 14.9593 82.0611 14.6136C81.3908 13.895 81.0176 12.9454 81.0176 11.9587C81.0176 10.972 81.3908 10.0225 82.0611 9.30383C82.3961 8.9484 82.8015 8.66789 83.2508 8.48042C83.7001 8.29296 84.1835 8.20272 84.6696 8.21556C85.155 8.20781 85.6368 8.30037 86.0854 8.48753C86.534 8.67469 86.9399 8.95249 87.2781 9.30383C87.619 9.65362 87.887 10.0688 88.0662 10.5248C88.2454 10.9807 88.3322 11.4683 88.3215 11.9587C88.337 12.4497 88.2524 12.9387 88.073 13.3954C87.8935 13.8521 87.6229 14.2667 87.2781 14.6136ZM82.7369 14.0157C82.9895 14.2739 83.2904 14.4788 83.6222 14.6188C83.9539 14.7587 84.31 14.8307 84.6696 14.8307C85.0292 14.8307 85.3852 14.7587 85.717 14.6188C86.0487 14.4788 86.3497 14.2739 86.6022 14.0157C87.1138 13.455 87.3978 12.7208 87.3978 11.9587C87.3978 11.1967 87.1138 10.4625 86.6022 9.90178C86.3497 9.64361 86.0487 9.43862 85.717 9.2987C85.3852 9.15879 85.0292 9.08674 84.6696 9.08674C84.31 9.08674 83.9539 9.15879 83.6222 9.2987C83.2904 9.43862 82.9895 9.64361 82.7369 9.90178C82.2253 10.4625 81.9413 11.1967 81.9413 11.9587C81.9413 12.7208 82.2253 13.455 82.7369 14.0157Z" fill="white" stroke="white" stroke-width="0.411304" stroke-miterlimit="10"/>
<path d="M89.6138 15.5465V8.37109H90.7165L94.1787 13.956V12.5687V8.37109H95.0917V15.5465H94.1431L90.5268 9.69855V11.0738V15.5465H89.6138Z" fill="white" stroke="white" stroke-width="0.411304" stroke-miterlimit="10"/>
<path d="M80.7924 26.0105C79.7934 26.0129 78.8175 26.314 77.9882 26.8757C77.1589 27.4375 76.5133 28.2347 76.1332 29.1665C75.7531 30.0983 75.6554 31.1229 75.8526 32.1107C76.0498 33.0985 76.533 34.0051 77.2411 34.7159C77.9491 35.4267 78.8502 35.9098 79.8305 36.104C80.8107 36.2983 81.8261 36.195 82.7481 35.8072C83.6702 35.4194 84.4575 34.7646 85.0106 33.9255C85.5637 33.0864 85.8576 32.1007 85.8553 31.0931C85.8649 30.4209 85.7404 29.7537 85.4891 29.131C85.2378 28.5084 84.8648 27.9432 84.3924 27.4689C83.92 26.9947 83.3579 26.6212 82.7394 26.3706C82.1209 26.1201 81.4588 25.9976 80.7924 26.0105ZM80.7924 34.1785C80.1801 34.2217 79.5691 34.0781 79.0387 33.7664C78.5084 33.4547 78.0833 32.9893 77.8187 32.4306C77.5541 31.872 77.4623 31.246 77.5551 30.6341C77.6479 30.0221 77.9211 29.4524 78.3392 28.9991C78.7572 28.5458 79.3008 28.2299 79.8993 28.0923C80.4978 27.9548 81.1234 28.002 81.6949 28.2278C82.2664 28.4537 82.7574 28.8477 83.1039 29.3587C83.4504 29.8697 83.6365 30.474 83.638 31.0931C83.6571 31.4854 83.5982 31.8775 83.4646 32.2465C83.331 32.6154 83.1256 32.9536 82.8604 33.2412C82.5952 33.5287 82.2756 33.7598 81.9204 33.9208C81.5652 34.0818 81.1817 34.1694 80.7924 34.1785ZM69.7418 26.0105C68.7428 26.0129 67.767 26.314 66.9377 26.8757C66.1083 27.4375 65.4628 28.2347 65.0827 29.1665C64.7025 30.0983 64.6049 31.1229 64.8021 32.1107C64.9993 33.0985 65.4824 34.0051 66.1905 34.7159C66.8986 35.4267 67.7997 35.9098 68.7799 36.104C69.7602 36.2983 70.7755 36.195 71.6976 35.8072C72.6196 35.4194 73.407 34.7646 73.96 33.9255C74.5131 33.0864 74.807 32.1007 74.8047 31.0931C74.8144 30.4209 74.6898 29.7537 74.4385 29.131C74.1872 28.5084 73.8143 27.9432 73.3419 27.4689C72.8695 26.9947 72.3073 26.6212 71.6888 26.3706C71.0704 26.1201 70.4082 25.9976 69.7418 26.0105ZM69.7418 34.1785C69.1295 34.2217 68.5185 34.0781 67.9882 33.7664C67.4578 33.4547 67.0328 32.9893 66.7682 32.4306C66.5036 31.872 66.4117 31.246 66.5045 30.6341C66.5974 30.0221 66.8706 29.4524 67.2886 28.9991C67.7067 28.5458 68.2503 28.2299 68.8487 28.0923C69.4472 27.9548 70.0729 28.002 70.6444 28.2278C71.2159 28.4537 71.7068 28.8477 72.0533 29.3587C72.3999 29.8697 72.586 30.474 72.5875 31.0931C72.6066 31.4854 72.5476 31.8775 72.414 32.2465C72.2805 32.6154 72.075 32.9536 71.8098 33.2412C71.5446 33.5287 71.225 33.7598 70.8698 33.9208C70.5147 34.0818 70.1311 34.1694 69.7418 34.1785ZM56.6045 27.5771V29.7298H61.7266C61.6463 30.7437 61.2285 31.7004 60.5409 32.4445C60.0271 32.9725 59.4092 33.3858 58.727 33.6577C58.0448 33.9297 57.3136 34.0541 56.5808 34.0231C55.0713 34.0231 53.6237 33.4183 52.5564 32.3418C51.4891 31.2652 50.8895 29.8052 50.8895 28.2827C50.8895 26.7603 51.4891 25.3002 52.5564 24.2237C53.6237 23.1472 55.0713 22.5424 56.5808 22.5424C58.0278 22.5207 59.4251 23.075 60.4698 24.0851L61.9756 22.5663C61.2689 21.8613 60.4299 21.3057 59.5076 20.932C58.5853 20.5582 57.5983 20.3739 56.6045 20.3898C55.5504 20.3484 54.4989 20.5221 53.513 20.9004C52.527 21.2787 51.627 21.8539 50.8667 22.5914C50.1064 23.329 49.5016 24.2138 49.0884 25.1928C48.6753 26.1717 48.4623 27.2247 48.4623 28.2887C48.4623 29.3527 48.6753 30.4057 49.0884 31.3847C49.5016 32.3636 50.1064 33.2484 50.8667 33.986C51.627 34.7235 52.527 35.2987 53.513 35.677C54.4989 36.0554 55.5504 36.229 56.6045 36.1876C57.6187 36.2285 58.6301 36.0525 59.5721 35.6712C60.5142 35.2899 61.3656 34.7119 62.0705 33.9752C63.3156 32.5956 63.979 30.7812 63.9201 28.9166C63.9244 28.4678 63.8887 28.0195 63.8134 27.5771H56.6045ZM110.328 29.2514C110.019 28.3338 109.44 27.5326 108.67 26.9539C107.899 26.3752 106.972 26.0462 106.012 26.0105C105.363 26.0092 104.721 26.1421 104.126 26.401C103.53 26.6599 102.993 27.0392 102.549 27.5156C102.104 27.992 101.761 28.5552 101.541 29.1705C101.321 29.7859 101.229 30.4402 101.269 31.0931C101.259 32.1848 101.599 33.2505 102.239 34.131C102.879 35.0115 103.784 35.6597 104.819 35.9785C105.855 36.2974 106.964 36.27 107.983 35.9003C109.001 35.5306 109.874 34.8385 110.47 33.9274L108.751 32.7315C108.494 33.1623 108.131 33.5181 107.696 33.7636C107.262 34.009 106.771 34.1356 106.273 34.1307C105.759 34.1521 105.25 34.0162 104.815 33.7409C104.379 33.4655 104.035 33.0636 103.83 32.588L110.577 29.7776L110.328 29.2514ZM103.451 30.9496C103.427 30.5781 103.476 30.2055 103.597 29.8537C103.717 29.5018 103.906 29.1778 104.153 28.9004C104.399 28.6231 104.697 28.3982 105.031 28.2387C105.364 28.0792 105.726 27.9885 106.095 27.9718C106.477 27.9483 106.857 28.039 107.188 28.2326C107.52 28.4262 107.787 28.714 107.956 29.0601L103.451 30.9496ZM97.9729 35.8767H100.19V20.9279H97.9729V35.8767ZM94.3447 27.1466H94.2617C93.9305 26.7662 93.5217 26.4623 93.0633 26.2559C92.605 26.0495 92.1078 25.9454 91.6058 25.9507C90.3101 26.0141 89.0882 26.5779 88.1934 27.5252C87.2986 28.4726 86.7995 29.7309 86.7995 31.0393C86.7995 32.3477 87.2986 33.606 88.1934 34.5534C89.0882 35.5007 90.3101 36.0645 91.6058 36.1279C92.1085 36.138 92.6072 36.0361 93.0663 35.8294C93.5254 35.6226 93.9336 35.3162 94.2617 34.932H94.3447V35.6615C94.3447 37.6108 93.3132 38.6512 91.6532 38.6512C91.0987 38.6389 90.5603 38.4607 90.1065 38.1392C89.6526 37.8177 89.3037 37.3673 89.104 36.8454L87.1832 37.6467C87.5383 38.5463 88.1558 39.316 88.9539 39.8541C89.7521 40.3922 90.6933 40.6733 91.6532 40.6603C94.2499 40.6603 96.396 39.1176 96.396 35.3625V26.3095H94.3447V27.1466ZM91.7955 34.1785C91.0187 34.1297 90.2895 33.784 89.7565 33.2118C89.2235 32.6397 88.9268 31.8842 88.9268 31.0991C88.9268 30.314 89.2235 29.5585 89.7565 28.9863C90.2895 28.4142 91.0187 28.0685 91.7955 28.0196C92.1752 28.0362 92.5477 28.1296 92.8909 28.2943C93.2341 28.459 93.5409 28.6916 93.7932 28.9784C94.0454 29.2651 94.2378 29.6001 94.3591 29.9634C94.4803 30.3267 94.5278 30.7109 94.4989 31.0931C94.5312 31.4766 94.4861 31.8628 94.3663 32.2282C94.2464 32.5936 94.0544 32.9307 93.8017 33.2192C93.549 33.5076 93.2409 33.7413 92.8961 33.9062C92.5512 34.0711 92.1768 34.1637 91.7955 34.1785ZM120.714 20.9279H115.402V35.8767H117.62V30.2081H120.714C121.346 30.2539 121.981 30.1679 122.578 29.9555C123.176 29.743 123.723 29.4087 124.187 28.9734C124.651 28.538 125.021 28.011 125.274 27.4251C125.527 26.8392 125.657 26.207 125.657 25.568C125.657 24.929 125.527 24.2969 125.274 23.711C125.021 23.1251 124.651 22.5981 124.187 22.1627C123.723 21.7274 123.176 21.393 122.578 21.1806C121.981 20.9681 121.346 20.8821 120.714 20.9279ZM120.714 28.1033H117.62V23.0088H120.762C121.095 23.0088 121.425 23.075 121.733 23.2036C122.041 23.3322 122.32 23.5207 122.556 23.7584C122.792 23.996 122.978 24.2782 123.106 24.5887C123.233 24.8992 123.299 25.2319 123.299 25.568C123.299 25.9041 123.233 26.2369 123.106 26.5474C122.978 26.8579 122.792 27.14 122.556 27.3777C122.32 27.6153 122.041 27.8038 121.733 27.9325C121.425 28.0611 121.095 28.1273 120.762 28.1273L120.714 28.1033ZM134.397 25.9627C133.59 25.9125 132.785 26.1021 132.084 26.508C131.382 26.914 130.813 27.5185 130.449 28.2469L132.405 29.072C132.603 28.7125 132.899 28.4185 133.259 28.2254C133.619 28.0322 134.027 27.9483 134.433 27.9838C134.714 27.9506 134.999 27.9743 135.272 28.0535C135.544 28.1327 135.798 28.2658 136.019 28.445C136.239 28.6243 136.422 28.846 136.557 29.0974C136.692 29.3488 136.776 29.6247 136.804 29.9092V30.0527C136.091 29.6747 135.297 29.4776 134.492 29.4786C132.381 29.4786 130.223 30.6745 130.223 32.8511C130.244 33.3137 130.357 33.7674 130.555 34.1852C130.753 34.603 131.033 34.9763 131.377 35.2831C131.721 35.5899 132.122 35.8238 132.558 35.9709C132.993 36.1181 133.453 36.1755 133.911 36.1398C134.467 36.1709 135.022 36.0521 135.518 35.7957C136.014 35.5393 136.433 35.1545 136.733 34.6808H136.804V35.8767H138.938V30.1244C138.938 27.5054 136.97 25.9866 134.444 25.9866L134.397 25.9627ZM134.124 34.1546C133.401 34.1546 132.393 33.7839 132.393 32.887C132.393 31.6911 133.65 31.2844 134.765 31.2844C135.469 31.2669 136.165 31.4404 136.78 31.7867C136.706 32.4362 136.401 33.0364 135.921 33.4762C135.441 33.916 134.82 34.1655 134.172 34.1785L134.124 34.1546ZM146.716 26.3095L144.179 32.7913H144.108L141.476 26.3095H139.104L143.053 35.3744L140.8 40.4092H143.112L149.183 26.3095H146.716ZM126.797 35.8767H129.002V20.9279H126.797V35.8767Z" fill="white"/>
<path d="M12.3785 9.01731C11.9878 9.48326 11.7885 10.0822 11.8213 10.6916V37.145C11.7809 37.7553 11.9812 38.357 12.3785 38.8192L12.4615 38.9149L27.1521 24.0976V23.7389L12.4615 8.93359L12.3785 9.01731Z" fill="url(#paint0_linear_9_260)"/>
<path d="M32.0135 29.0362L27.1522 24.0972V23.7384L32.0135 18.7993L32.1202 18.8711L37.9419 22.1957C39.6018 23.1404 39.6018 24.6951 37.9419 25.6518L32.1439 28.9765L32.0135 29.0362Z" fill="url(#paint1_linear_9_260)"/>
<path d="M32.1557 28.9647L27.1521 23.918L12.3785 38.8189C12.7136 39.1197 13.1424 39.2928 13.5907 39.3081C14.039 39.3234 14.4785 39.1799 14.8329 38.9026L32.1557 28.9647Z" fill="url(#paint2_linear_9_260)"/>
<path d="M32.1557 18.8715L14.8329 8.94553C14.4808 8.66439 14.0417 8.51747 13.5928 8.53059C13.1439 8.54372 12.7139 8.71605 12.3785 9.01729L27.1521 23.9182L32.1557 18.8715Z" fill="url(#paint3_linear_9_260)"/>
<path opacity="0.2" d="M32.0134 28.8569L14.8329 38.7231C14.4914 38.9831 14.0751 39.1238 13.6472 39.1238C13.2193 39.1238 12.8031 38.9831 12.4615 38.7231L12.3785 38.8068L12.4615 38.9025C12.8031 39.1625 13.2193 39.3032 13.6472 39.3032C14.0751 39.3032 14.4914 39.1625 14.8329 38.9025L32.1557 28.9646L32.0134 28.8569Z" fill="white"/>
<path opacity="0.12" d="M12.3785 38.6516C11.9977 38.1772 11.8111 37.574 11.8568 36.9653V37.1447C11.8165 37.7551 12.0168 38.3568 12.4141 38.819L12.4971 38.7353L12.3785 38.6516Z" fill="white"/>
<path opacity="0.12" d="M37.9418 25.4726L32.0134 28.857L32.1201 28.9647L37.9418 25.6401C38.2855 25.4935 38.5836 25.2562 38.8048 24.9531C39.026 24.6501 39.162 24.2925 39.1987 23.918C39.1245 24.2583 38.9722 24.5763 38.7539 24.8463C38.5356 25.1164 38.2574 25.3309 37.9418 25.4726Z" fill="white"/>
<path opacity="0.25" d="M14.8329 9.113L37.9418 22.3636C38.2574 22.5054 38.5355 22.7199 38.7538 22.9899C38.9721 23.26 39.1245 23.578 39.1986 23.9183C39.162 23.5438 39.0259 23.1862 38.8047 22.8831C38.5836 22.58 38.2854 22.3427 37.9418 22.1962L14.8329 8.94558C13.1848 7.98885 11.8212 8.77815 11.8212 10.6916V10.871C11.8568 8.95754 13.1848 8.16824 14.8329 9.113Z" fill="white"/>
</g>
<defs>
<linearGradient id="paint0_linear_9_260" x1="25.8479" y1="10.4165" x2="5.78136" y2="30.3115" gradientUnits="userSpaceOnUse">
<stop stop-color="#00A0FF"/>
<stop offset="0.01" stop-color="#00A1FF"/>
<stop offset="0.26" stop-color="#00BEFF"/>
<stop offset="0.51" stop-color="#00D2FF"/>
<stop offset="0.76" stop-color="#00DFFF"/>
<stop offset="1" stop-color="#00E3FF"/>
</linearGradient>
<linearGradient id="paint1_linear_9_260" x1="40.1117" y1="23.9178" x2="11.43" y2="23.9178" gradientUnits="userSpaceOnUse">
<stop stop-color="#FFE000"/>
<stop offset="0.41" stop-color="#FFBD00"/>
<stop offset="0.78" stop-color="#FFA500"/>
<stop offset="1" stop-color="#FF9C00"/>
</linearGradient>
<linearGradient id="paint2_linear_9_260" x1="29.4405" y1="26.6685" x2="2.22284" y2="53.6417" gradientUnits="userSpaceOnUse">
<stop stop-color="#FF3A44"/>
<stop offset="1" stop-color="#C31162"/>
</linearGradient>
<linearGradient id="paint3_linear_9_260" x1="8.6555" y1="0.215442" x2="20.8054" y2="12.2615" gradientUnits="userSpaceOnUse">
<stop stop-color="#32A071"/>
<stop offset="0.07" stop-color="#2DA771"/>
<stop offset="0.48" stop-color="#15CF74"/>
<stop offset="0.8" stop-color="#06E775"/>
<stop offset="1" stop-color="#00F076"/>
</linearGradient>
<clipPath id="clip0_9_260">
<rect width="160.067" height="47.8361" fill="white"/>
</clipPath>
</defs>
</svg>
