<svg width="24" height="24" viewBox="0 0 24 24" fill="none" xmlns="http://www.w3.org/2000/svg">
<circle cx="12" cy="12" r="12" fill="#D60036"/>
<path d="M9.04669 7.408C10.06 6.74667 11.084 6.416 12.1187 6.416C13.1534 6.416 13.9427 6.72 14.4867 7.328C14.9667 7.85067 15.2067 8.54933 15.2067 9.424C15.2067 10.0747 15.052 10.7147 14.7427 11.344C14.4334 11.9733 13.8947 12.7573 13.1267 13.696C12.2627 14.7413 11.7827 15.312 11.6867 15.408L10.7427 16.368H15.4307V17.008L14.6307 18H8.56669V16.368L9.75069 15.152L10.9027 13.84C11.788 12.8587 12.3587 12.1813 12.6147 11.808C13.1587 11.0293 13.4307 10.3413 13.4307 9.744C13.4307 9.27467 13.276 8.896 12.9667 8.608C12.668 8.30933 12.2734 8.16 11.7827 8.16C11.2067 8.16 10.62 8.368 10.0227 8.784L9.04669 7.408Z" fill="white"/>
</svg>
