<svg width="24" height="24" viewBox="0 0 24 24" fill="none" xmlns="http://www.w3.org/2000/svg">
<circle cx="12" cy="12" r="12" fill="#D60036"/>
<path d="M9.38381 6.8C10.1945 6.544 10.8611 6.416 11.3838 6.416C12.5038 6.416 13.3945 6.70933 14.0558 7.296C14.6958 7.86133 15.0158 8.61333 15.0158 9.552C15.0158 10.928 14.3545 11.7973 13.0318 12.16C13.8105 12.32 14.4078 12.6507 14.8238 13.152C15.2611 13.6853 15.4798 14.2827 15.4798 14.944C15.4798 16.0427 15.0211 16.8907 14.1038 17.488C13.3998 17.9467 12.5518 18.176 11.5598 18.176C10.8665 18.176 10.1838 18.0907 9.51181 17.92L8.88781 17.152V16.416C9.63448 16.5547 10.2745 16.624 10.8078 16.624C12.6211 16.624 13.5278 16.0693 13.5278 14.96C13.5278 14.384 13.2771 13.8987 12.7758 13.504C12.4558 13.2587 12.1145 13.0933 11.7518 13.008C11.3998 12.9227 10.8505 12.8693 10.1038 12.848V11.36H11.7198C12.1251 11.36 12.4611 11.2213 12.7278 10.944C12.9945 10.656 13.1278 10.2987 13.1278 9.872C13.1278 9.328 12.9411 8.90667 12.5678 8.608C12.2051 8.29867 11.7038 8.144 11.0638 8.144C10.6585 8.144 10.0985 8.23467 9.38381 8.416V6.8Z" fill="white"/>
</svg>
