<svg width="24" height="24" viewBox="0 0 24 24" fill="none" xmlns="http://www.w3.org/2000/svg">
<g clip-path="url(#clip0_18_226)">
<path fill-rule="evenodd" clip-rule="evenodd" d="M12 0.75C5.79075 0.75 0.75 5.79075 0.75 12C0.75 18.2093 5.79075 23.25 12 23.25C18.2093 23.25 23.25 18.2093 23.25 12C23.25 5.79075 18.2093 0.75 12 0.75ZM12 2.25C17.3813 2.25 21.75 6.61875 21.75 12C21.75 17.3813 17.3813 21.75 12 21.75C6.61875 21.75 2.25 17.3813 2.25 12C2.25 6.61875 6.61875 2.25 12 2.25ZM11.25 6.75H9.75C8.09325 6.75 6.75 8.09325 6.75 9.75C6.75 11.4067 8.09325 12.75 9.75 12.75H11.25V15.75H9.75C8.92125 15.75 8.25 15.0787 8.25 14.25C8.25 13.836 7.914 13.5 7.5 13.5C7.086 13.5 6.75 13.836 6.75 14.25C6.75 15.9067 8.09325 17.25 9.75 17.25H11.25V18C11.25 18.414 11.586 18.75 12 18.75C12.414 18.75 12.75 18.414 12.75 18V17.25H14.25C15.9067 17.25 17.25 15.9067 17.25 14.25C17.25 12.5933 15.9067 11.25 14.25 11.25H12.75V8.25H14.25C15.0787 8.25 15.75 8.92125 15.75 9.75C15.75 10.164 16.086 10.5 16.5 10.5C16.914 10.5 17.25 10.164 17.25 9.75C17.25 8.09325 15.9067 6.75 14.25 6.75H12.75V6C12.75 5.586 12.414 5.25 12 5.25C11.586 5.25 11.25 5.586 11.25 6V6.75ZM12.75 15.75H14.25C15.0787 15.75 15.75 15.0787 15.75 14.25C15.75 13.4213 15.0787 12.75 14.25 12.75H12.75V15.75ZM9.75 8.25C8.92125 8.25 8.25 8.92125 8.25 9.75C8.25 10.5787 8.92125 11.25 9.75 11.25H11.25V8.25H9.75Z" fill="#D60036"/>
</g>
<defs>
<clipPath id="clip0_18_226">
<rect width="24" height="24" fill="white"/>
</clipPath>
</defs>
</svg>
