<svg width="26" height="24" viewBox="0 0 26 24" fill="none" xmlns="http://www.w3.org/2000/svg">
<path d="M21.4 9.00001H21.016L19.516 5.25601C19.2481 4.59032 18.7874 4.01988 18.193 3.6179C17.5986 3.21592 16.8976 3.00075 16.18 3.00001H8.98C8.14635 2.99763 7.3377 3.28464 6.6921 3.81207C6.0465 4.3395 5.60395 5.07464 5.44 5.89201L4.816 9.00001H4.6C3.64522 9.00001 2.72955 9.37929 2.05442 10.0544C1.37928 10.7296 1 11.6452 1 12.6V16.2C1 16.5183 1.12643 16.8235 1.35147 17.0485C1.57652 17.2736 1.88174 17.4 2.2 17.4H3.4C3.4 18.3548 3.77928 19.2705 4.45442 19.9456C5.12955 20.6207 6.04522 21 7 21C7.95478 21 8.87045 20.6207 9.54559 19.9456C10.2207 19.2705 10.6 18.3548 10.6 17.4H15.4C15.4 18.3548 15.7793 19.2705 16.4544 19.9456C17.1295 20.6207 18.0452 21 19 21C19.9548 21 20.8705 20.6207 21.5456 19.9456C22.2207 19.2705 22.6 18.3548 22.6 17.4H23.8C24.1183 17.4 24.4235 17.2736 24.6485 17.0485C24.8736 16.8235 25 16.5183 25 16.2V12.6C25 11.6452 24.6207 10.7296 23.9456 10.0544C23.2705 9.37929 22.3548 9.00001 21.4 9.00001ZM14.2 5.40001H16.18C16.4183 5.40217 16.6505 5.47522 16.8472 5.60986C17.0438 5.7445 17.1958 5.93462 17.284 6.15601L18.424 9.00001H14.2V5.40001ZM7.792 6.36001C7.8481 6.08488 7.99891 5.83814 8.21817 5.66273C8.43743 5.48732 8.71126 5.39435 8.992 5.40001H11.8V9.00001H7.264L7.792 6.36001ZM7 18.6C6.76266 18.6 6.53066 18.5296 6.33332 18.3978C6.13598 18.2659 5.98217 18.0785 5.89134 17.8592C5.80052 17.64 5.77676 17.3987 5.82306 17.1659C5.86936 16.9331 5.98365 16.7193 6.15147 16.5515C6.3193 16.3837 6.53311 16.2694 6.76589 16.2231C6.99867 16.1768 7.23995 16.2005 7.45922 16.2913C7.67849 16.3822 7.86591 16.536 7.99776 16.7333C8.12962 16.9307 8.2 17.1627 8.2 17.4C8.2 17.7183 8.07357 18.0235 7.84853 18.2485C7.62348 18.4736 7.31826 18.6 7 18.6ZM19 18.6C18.7627 18.6 18.5307 18.5296 18.3333 18.3978C18.136 18.2659 17.9822 18.0785 17.8913 17.8592C17.8005 17.64 17.7768 17.3987 17.8231 17.1659C17.8694 16.9331 17.9836 16.7193 18.1515 16.5515C18.3193 16.3837 18.5331 16.2694 18.7659 16.2231C18.9987 16.1768 19.24 16.2005 19.4592 16.2913C19.6785 16.3822 19.8659 16.536 19.9978 16.7333C20.1296 16.9307 20.2 17.1627 20.2 17.4C20.2 17.7183 20.0736 18.0235 19.8485 18.2485C19.6235 18.4736 19.3183 18.6 19 18.6Z" fill="#D60036"/>
</svg>
