<svg width="24" height="24" viewBox="0 0 24 24" fill="none" xmlns="http://www.w3.org/2000/svg">
<path d="M20.6263 3.37354L20.6284 3.37557C21.3715 4.11019 21.6621 5.1581 21.405 6.17776L21.4048 6.17883L18.9548 15.9888L18.9546 15.9894C18.5895 17.4586 17.4506 18.5894 15.9886 18.9549L6.17871 21.4049L6.17057 21.4069L6.1625 21.4092C5.93748 21.4735 5.6955 21.5 5.44986 21.5C4.6851 21.5 3.9408 21.1945 3.37214 20.6352C2.62721 19.8894 2.33797 18.8405 2.59469 17.8222L2.59496 17.8211L5.04493 8.01125C5.04494 8.01121 5.04495 8.01117 5.04496 8.01113C5.41048 6.54922 6.54128 5.41029 8.01044 5.04523L8.01113 5.04505L17.8111 2.59505L17.8121 2.59481C18.831 2.33794 19.8804 2.62766 20.6263 3.37354ZM7.61986 12C7.61986 14.4161 9.58372 16.38 11.9999 16.38C14.416 16.38 16.3799 14.4161 16.3799 12C16.3799 9.58384 14.416 7.61998 11.9999 7.61998C9.58372 7.61998 7.61986 9.58384 7.61986 12Z" fill="#D60036" stroke="#D60036"/>
</svg>
