<svg width="64" height="64" viewBox="0 0 64 64" fill="none" xmlns="http://www.w3.org/2000/svg">
<rect width="64" height="64" rx="16" fill="#D60036" fill-opacity="0.08"/>
<path d="M43.6199 20.3802L43.622 20.3823C44.6551 21.4036 45.059 22.8615 44.702 24.2778L44.7017 24.2789L41.435 37.3589L41.4349 37.3594C40.9332 39.3786 39.3675 40.9328 37.3589 41.4349L24.279 44.7016L24.2708 44.7036L24.2628 44.7059C23.9444 44.7969 23.6058 44.8333 23.2668 44.8333C22.202 44.8333 21.1677 44.4078 20.379 43.6318C19.3441 42.596 18.9416 41.1372 19.2983 39.7222L19.2986 39.7212L22.5652 26.6413C22.5652 26.6412 22.5652 26.6412 22.5652 26.6412C23.0674 24.6326 24.6216 23.067 26.6407 22.5653L26.6414 22.5651L39.7081 19.2984L39.709 19.2982C41.1246 18.9413 42.584 19.3444 43.6199 20.3802ZM26.3268 32C26.3268 35.1295 28.8707 37.6733 32.0001 37.6733C35.1296 37.6733 37.6735 35.1295 37.6735 32C37.6735 28.8705 35.1296 26.3267 32.0001 26.3267C28.8707 26.3267 26.3268 28.8705 26.3268 32Z" fill="#D60036" stroke="#D60036"/>
</svg>
