<svg width="64" height="64" viewBox="0 0 64 64" fill="none" xmlns="http://www.w3.org/2000/svg">
<rect width="64" height="64" rx="16" fill="#D60036" fill-opacity="0.08"/>
<path d="M45.3334 44.3333C45.3334 44.88 44.8801 45.3333 44.3334 45.3333H19.6667C19.1201 45.3333 18.6667 44.88 18.6667 44.3333C18.6667 43.7866 19.1201 43.3333 19.6667 43.3333H44.3334C44.8801 43.3333 45.3334 43.7866 45.3334 44.3333Z" fill="#D60036"/>
<path d="M36.52 22.0267L22.2 36.3467C21.6533 36.8933 20.7733 36.8933 20.24 36.3467H20.2267C18.3733 34.48 18.3733 31.4667 20.2267 29.6133L29.76 20.08C31.6267 18.2133 34.64 18.2133 36.5067 20.08C37.0533 20.6 37.0533 21.4933 36.52 22.0267Z" fill="#D60036"/>
<path d="M43.7601 27.32L39.6934 23.2533C39.1468 22.7067 38.2668 22.7067 37.7334 23.2533L23.4134 37.5733C22.8668 38.1067 22.8668 38.9867 23.4134 39.5333L27.4801 43.6133C29.3468 45.4667 32.3601 45.4667 34.2268 43.6133L43.7467 34.08C45.6401 32.2133 45.6401 29.1867 43.7601 27.32ZM33.0134 39.36L31.4001 40.9867C31.0668 41.32 30.5201 41.32 30.1734 40.9867C29.8401 40.6533 29.8401 40.1067 30.1734 39.76L31.8001 38.1333C32.1201 37.8133 32.6801 37.8133 33.0134 38.1333C33.3468 38.4667 33.3468 39.04 33.0134 39.36ZM38.3068 34.0667L35.0534 37.3333C34.7201 37.6533 34.1734 37.6533 33.8268 37.3333C33.4934 37 33.4934 36.4533 33.8268 36.1067L37.0934 32.84C37.4134 32.52 37.9734 32.52 38.3068 32.84C38.6401 33.1867 38.6401 33.7333 38.3068 34.0667Z" fill="#D60036"/>
</svg>
