<svg width="64" height="64" viewBox="0 0 64 64" fill="none" xmlns="http://www.w3.org/2000/svg">
<rect width="64" height="64" rx="16" fill="#D60036" fill-opacity="0.08"/>
<path d="M42.65 28.3333H42.186L40.3735 23.7573C40.0498 22.9437 39.4931 22.2465 38.7748 21.7552C38.0566 21.2639 37.2096 21.0009 36.3425 21H27.6425C26.6352 20.9971 25.6581 21.3479 24.878 21.9925C24.0978 22.6372 23.5631 23.5357 23.365 24.5347L22.611 28.3333H22.35C21.1963 28.3333 20.0899 28.7969 19.2741 29.6221C18.4583 30.4472 18 31.5664 18 32.7333V37.1333C18 37.5223 18.1528 37.8954 18.4247 38.1704C18.6966 38.4455 19.0654 38.6 19.45 38.6H20.9C20.9 39.767 21.3583 40.8861 22.1741 41.7113C22.9899 42.5364 24.0963 43 25.25 43C26.4037 43 27.5101 42.5364 28.3259 41.7113C29.1417 40.8861 29.6 39.767 29.6 38.6H35.4C35.4 39.767 35.8583 40.8861 36.6741 41.7113C37.4899 42.5364 38.5963 43 39.75 43C40.9037 43 42.0101 42.5364 42.8259 41.7113C43.6417 40.8861 44.1 39.767 44.1 38.6H45.55C45.9346 38.6 46.3034 38.4455 46.5753 38.1704C46.8472 37.8954 47 37.5223 47 37.1333V32.7333C47 31.5664 46.5417 30.4472 45.7259 29.6221C44.9101 28.7969 43.8037 28.3333 42.65 28.3333ZM33.95 23.9333H36.3425C36.6304 23.936 36.9111 24.0253 37.1486 24.1898C37.3862 24.3544 37.57 24.5868 37.6765 24.8573L39.054 28.3333H33.95V23.9333ZM26.207 25.1067C26.2748 24.7704 26.457 24.4688 26.722 24.2544C26.9869 24.0401 27.3178 23.9264 27.657 23.9333H31.05V28.3333H25.569L26.207 25.1067ZM25.25 40.0667C24.9632 40.0667 24.6829 39.9807 24.4444 39.8195C24.206 39.6583 24.0201 39.4293 23.9104 39.1613C23.8006 38.8933 23.7719 38.5984 23.8279 38.3139C23.8838 38.0294 24.0219 37.768 24.2247 37.5629C24.4275 37.3578 24.6858 37.2181 24.9671 37.1615C25.2484 37.1049 25.5399 37.134 25.8049 37.245C26.0698 37.356 26.2963 37.544 26.4556 37.7852C26.615 38.0264 26.7 38.3099 26.7 38.6C26.7 38.989 26.5472 39.362 26.2753 39.6371C26.0034 39.9121 25.6346 40.0667 25.25 40.0667ZM39.75 40.0667C39.4632 40.0667 39.1829 39.9807 38.9444 39.8195C38.706 39.6583 38.5201 39.4293 38.4104 39.1613C38.3006 38.8933 38.2719 38.5984 38.3279 38.3139C38.3838 38.0294 38.5219 37.768 38.7247 37.5629C38.9275 37.3578 39.1858 37.2181 39.4671 37.1615C39.7484 37.1049 40.0399 37.134 40.3049 37.245C40.5698 37.356 40.7963 37.544 40.9556 37.7852C41.115 38.0264 41.2 38.3099 41.2 38.6C41.2 38.989 41.0472 39.362 40.7753 39.6371C40.5034 39.9121 40.1346 40.0667 39.75 40.0667Z" fill="#D60036"/>
</svg>
