<svg width="64" height="64" viewBox="0 0 64 64" fill="none" xmlns="http://www.w3.org/2000/svg">
<rect width="64" height="64" rx="16" fill="#D60036" fill-opacity="0.08"/>
<path d="M37.5865 18.6666H26.4132C21.5598 18.6666 18.6665 21.56 18.6665 26.4133V37.5733C18.6665 42.44 21.5598 45.3333 26.4132 45.3333H37.5732C42.4265 45.3333 45.3198 42.44 45.3198 37.5866V26.4133C45.3332 21.56 42.4398 18.6666 37.5865 18.6666ZM36.4798 35.0666C36.8665 35.4533 36.8665 36.0933 36.4798 36.48C36.2798 36.68 36.0265 36.7733 35.7732 36.7733C35.5198 36.7733 35.2665 36.68 35.0665 36.48L31.9998 33.4133L28.9332 36.48C28.7332 36.68 28.4798 36.7733 28.2265 36.7733C27.9732 36.7733 27.7198 36.68 27.5198 36.48C27.1332 36.0933 27.1332 35.4533 27.5198 35.0666L30.5865 32L27.5198 28.9333C27.1332 28.5466 27.1332 27.9066 27.5198 27.52C27.9065 27.1333 28.5465 27.1333 28.9332 27.52L31.9998 30.5866L35.0665 27.52C35.4532 27.1333 36.0932 27.1333 36.4798 27.52C36.8665 27.9066 36.8665 28.5466 36.4798 28.9333L33.4132 32L36.4798 35.0666Z" fill="#D60036"/>
</svg>
