<svg width="64" height="64" viewBox="0 0 64 64" fill="none" xmlns="http://www.w3.org/2000/svg">
<rect width="64" height="64" rx="16" fill="#D60036" fill-opacity="0.08"/>
<path d="M36.52 22.9467L38.4 26.7067C38.6533 27.2267 39.3333 27.72 39.9067 27.8267L43.3067 28.3867C45.48 28.7467 45.9867 30.32 44.4267 31.8934L41.7733 34.5467C41.3333 34.9867 41.08 35.8534 41.2267 36.48L41.9867 39.76C42.5867 42.3467 41.2 43.36 38.92 42L35.7333 40.1067C35.16 39.76 34.2 39.76 33.6267 40.1067L30.44 42C28.16 43.3467 26.7733 42.3467 27.3733 39.76L28.1333 36.48C28.2533 35.84 28 34.9734 27.56 34.5334L24.9067 31.88C23.3467 30.32 23.8533 28.7467 26.0267 28.3734L29.4267 27.8134C30 27.72 30.68 27.2134 30.9333 26.6934L32.8133 22.9334C33.84 20.9067 35.4933 20.9067 36.52 22.9467Z" fill="#D60036"/>
<path d="M26.6667 23.6666H18.6667C18.1201 23.6666 17.6667 23.2133 17.6667 22.6666C17.6667 22.12 18.1201 21.6666 18.6667 21.6666H26.6667C27.2134 21.6666 27.6667 22.12 27.6667 22.6666C27.6667 23.2133 27.2134 23.6666 26.6667 23.6666Z" fill="#D60036"/>
<path d="M22.6667 42.3334H18.6667C18.1201 42.3334 17.6667 41.88 17.6667 41.3334C17.6667 40.7867 18.1201 40.3334 18.6667 40.3334H22.6667C23.2134 40.3334 23.6667 40.7867 23.6667 41.3334C23.6667 41.88 23.2134 42.3334 22.6667 42.3334Z" fill="#D60036"/>
<path d="M20.0001 33H18.6667C18.1201 33 17.6667 32.5467 17.6667 32C17.6667 31.4533 18.1201 31 18.6667 31H20.0001C20.5467 31 21.0001 31.4533 21.0001 32C21.0001 32.5467 20.5467 33 20.0001 33Z" fill="#D60036"/>
</svg>
