<svg width="80" height="80" viewBox="0 0 80 80" fill="none" xmlns="http://www.w3.org/2000/svg">
<rect width="80" height="80" rx="40" transform="matrix(1 0 0 -1 0 80)" fill="#D60036"/>
<path d="M16 29.8214C16 31.6951 17.4902 33.2143 19.3281 33.2143C19.3488 33.2143 19.366 33.2035 19.3866 33.2032L23.5901 56.7751C23.8211 58.0585 24.9194 59 26.2091 59H53.7161C55.0024 59 56.1057 58.0619 56.3353 56.7717L60.5379 33.2058C60.5587 33.2058 60.5762 33.2143 60.6719 33.2143C62.5098 33.2143 64 31.6951 64 29.8214C64 27.9477 62.4349 26.4286 60.6719 26.4286C58.9088 26.4286 57.3437 27.9477 57.3437 29.8214C57.3437 30.5847 57.6367 31.2541 58.054 31.8207L50.5965 37.9024C49.2728 38.9821 47.31 38.5423 46.552 36.9965L41.7595 27.225C42.6999 26.6271 43.3656 25.6092 43.3656 24.3929C43.3656 22.5192 41.8014 21 39.9626 21C38.1238 21 36.7093 22.5192 36.7093 24.3929C36.7093 25.6092 37.3719 26.6271 38.3151 27.2259L33.5226 36.9973C32.7646 38.5428 30.801 38.9821 29.4781 37.9032L22.0206 31.8215C22.3651 31.2549 22.6563 30.5085 22.6563 29.8214C22.6563 27.9469 21.1669 26.4286 19.3281 26.4286C17.4893 26.4286 16 27.9469 16 29.8214Z" fill="white"/>
</svg>
